<svg xmlns="http://www.w3.org/2000/svg" xmlns:xlink="http://www.w3.org/1999/xlink" viewBox="0 0 934.89 676.27"><defs><style>.cls-1{fill:url(#linear-gradient);}.cls-2{fill:#e8e8e9;}.cls-3{fill:#149895;}.cls-4{fill:#a6a4a4;}.cls-5{fill:#213f7d;}.cls-6{fill:#1965a1;}.cls-7{fill:#125291;}.cls-8{fill:#cf7428;}.cls-9{fill:#133156;}.cls-10{fill:#b45b27;}.cls-11{fill:#cf7528;}.cls-12{fill:#ce7c29;}.cls-13{fill:#e3aa8d;}.cls-14{fill:#c9c6c0;}.cls-15{fill:#88898c;}.cls-16{fill:#56515b;}.cls-17{fill:#93774f;}.cls-18{fill:#d0a975;}.cls-19,.cls-20{fill:#e3eee3;}.cls-20{opacity:0.42;}.cls-21{fill:#c2cdc0;}.cls-22{fill:#1f1618;}.cls-23{fill:#0d0b0d;}.cls-24{fill:#1a9f49;}.cls-25{fill:#078944;}.cls-26{fill:#1d6231;}.cls-27{fill:#fff;}.cls-28{fill:#f5e4d4;}.cls-29{fill:#e4d2bd;}.cls-30{fill:#f8f2ec;}.cls-31{fill:#bfe1f6;}.cls-32{fill:#d1bca9;}.cls-33{fill:#2f1d0f;}.cls-34{fill:#eeb593;}.cls-35{fill:#faf8f6;}.cls-36{fill:url(#linear-gradient-2);}</style><linearGradient id="linear-gradient" x1="577.13" y1="525.85" x2="843.74" y2="939.18" gradientUnits="userSpaceOnUse"><stop offset="0.32" stop-color="#90c4bc"/><stop offset="0.92" stop-color="#9a92a8"/></linearGradient><linearGradient id="linear-gradient-2" x1="189.37" y1="354.26" x2="547.46" y2="294.23" gradientUnits="userSpaceOnUse"><stop offset="0.08" stop-color="#faf8f6"/><stop offset="0.87" stop-color="#faf8f6" stop-opacity="0"/></linearGradient></defs><title>Artboard 4 copy</title><g id="Layer_2" data-name="Layer 2"><polyline class="cls-1" points="934.88 40 934.88 676.27 3 676.27"/><path class="cls-2" d="M488.36,518.71l-3.56.24a13.12,13.12,0,0,0-1.07,6.73c.54,3.29,11.48,7.8,16.44,7.52s45.26-11.31,45.26-11.31,3-4.65.38-8.17-13.52,1.7-13.52,1.7Z"/><path class="cls-3" d="M521.6,496.25l-20.52,11s-15.4,5.09-16.28,11.69,14.08,10.25,19.54,9.2,41.53-11,42-12.9,2.59-12.26,1.08-15.87S521.6,496.25,521.6,496.25Z"/><path class="cls-2" d="M514.35,515.57a.94.94,0,0,1-.78-.74c-1.92-8.78-8.18-9.36-8.44-9.39a.92.92,0,0,1-.87-1,.94.94,0,0,1,1-.87c.32,0,7.92.66,10.15,10.88a.94.94,0,0,1-.72,1.13A1,1,0,0,1,514.35,515.57Z"/><path class="cls-2" d="M517.89,513.89a1,1,0,0,1-.78-.73c-1.92-8.78-8.18-9.37-8.44-9.39a.93.93,0,0,1-.87-1,1,1,0,0,1,1-.88c.33,0,7.93.67,10.16,10.88a.94.94,0,0,1-.73,1.13A.83.83,0,0,1,517.89,513.89Z"/><path class="cls-2" d="M521.82,512.08a1,1,0,0,1-.78-.74c-1.92-8.78-8.18-9.37-8.44-9.39a.94.94,0,0,1-.87-1,1,1,0,0,1,1-.88c.33,0,7.92.67,10.15,10.88a1,1,0,0,1-.72,1.14A1.38,1.38,0,0,1,521.82,512.08Z"/><path class="cls-2" d="M552.86,552.29l-3.46.88a13.17,13.17,0,0,0,.16,6.82c1.14,3.13,12.71,5.59,17.54,4.42s42.46-19.33,42.46-19.33,2.14-5.12-1.1-8.1-13,4.12-13,4.12Z"/><path class="cls-3" d="M581.47,524.18,563.3,538.73s-14.23,7.8-13.9,14.44,15.71,7.54,20.89,5.51,38.83-18.39,38.94-20.29.33-12.53-1.81-15.8S581.47,524.18,581.47,524.18Z"/><path class="cls-2" d="M577.85,544.49a.94.94,0,0,1-.9-.58c-3.48-8.28-9.75-7.73-10-7.71a.92.92,0,0,1-1.05-.84.94.94,0,0,1,.84-1c.32-.05,7.92-.78,12,8.86a.94.94,0,0,1-.51,1.24A.83.83,0,0,1,577.85,544.49Z"/><path class="cls-2" d="M581,542.21a.94.94,0,0,1-.9-.59c-3.48-8.28-9.74-7.73-10-7.7a1,1,0,0,1-.21-1.89c.33,0,7.92-.78,12,8.86a.94.94,0,0,1-.51,1.24A1.05,1.05,0,0,1,581,542.21Z"/><path class="cls-2" d="M584.56,539.71a1,1,0,0,1-.9-.58c-3.48-8.29-9.74-7.74-10-7.71a.93.93,0,0,1-1-.84,1,1,0,0,1,.83-1.05c.33,0,7.92-.78,12,8.86a.94.94,0,0,1-.5,1.24A1.11,1.11,0,0,1,584.56,539.71Z"/><path class="cls-4" d="M647.5,574.74a9.45,9.45,0,0,1-4.7-1.27,9.35,9.35,0,0,1-4.79-8.23V463.68h2.46a22.64,22.64,0,0,0-20.4,1.17L544.28,509A9.49,9.49,0,0,1,530,500.79V406.53h4.31v94.26a5.18,5.18,0,0,0,7.78,4.47l75.79-44.13a27,27,0,0,1,26.51-.29l85.69,47.46a10.89,10.89,0,0,1,.28,18.9l-78.07,46.2A9.43,9.43,0,0,1,647.5,574.74ZM642.32,464.6V565.24a5.17,5.17,0,0,0,7.81,4.45l78.06-46.19a6.58,6.58,0,0,0-.16-11.43l-85.7-47.46Z"/><path class="cls-5" d="M771,258.58l0,0-.21-.17a7.8,7.8,0,0,0-.75-.63l-5.72-4.81-.65,1.15-90.6-50.17a9.28,9.28,0,0,0-12.85,4.14c-7.55,15.51-14,41-19.13,65.87-7.53,36.89-11.93,72.5-11.93,72.5l-92.08,53.68c-1.21-.76-3.29-1.21-6.8-1.07v7.17l0,0a4.63,4.63,0,0,0,2.35,4.67l97.21,54a13.84,13.84,0,0,0,13.74-.17l96.87-56.64s4.4-35.61,11.93-72.51c5.27-25.82,12.07-52.26,20-67.57A8.1,8.1,0,0,0,771,258.58Z"/><path class="cls-6" d="M532.62,394.48l90.64-53.22,111.32,61.81-90.91,53.38a13.86,13.86,0,0,1-13.74.17l-97.21-54A4.69,4.69,0,0,1,532.62,394.48Z"/><path class="cls-7" d="M623.26,341.43l111.32,61.64s4.4-35.61,11.92-72.5L635.19,268.92C627.66,305.81,623.26,341.43,623.26,341.43Z"/><path class="cls-6" d="M654.32,203.05c-7.55,15.51-14.05,41-19.13,65.87L746.5,330.57c5.27-25.82,12.07-52.27,20-67.57a8.14,8.14,0,0,0-3.27-10.89l-96.05-53.19A9.28,9.28,0,0,0,654.32,203.05Z"/><path class="cls-8" d="M603.5,255.7s-56.14,20-64.83,26.62-43.41,32.13-43.41,32.13,18.66,3.42,21.56,13.95l40.84-30.8,45.22-10.93S602.5,273.83,603.5,255.7Z"/><path class="cls-9" d="M632.36,393.7s-31.17,24-38.12,42.2-19.66,92.31-19.66,92.31,16.06,16.3,37.88,2.16c0,0,6-77.93,25.18-89.19s66.41-30,63.53-56.59-75.28-27.09-75.28-27.09S558.1,394,555.46,401.44,513.68,498,513.68,498s2,21.59,33.57,14.14c0,0,29-79.36,35-84.87S589,415.76,632.36,393.7Z"/><path class="cls-10" d="M670,247.31l6.64,6.58s8.17,5.4,16.33,37.26,20,90.05,10.53,100.32-92.16-.53-90.31-32.39c0,0,1.17-26.33-13.5-54.5s1.17-50.38,4.41-50.82S653.11,236.64,670,247.31Z"/><path class="cls-11" d="M614,251.65s-8.69,13.83,4.47,35c0,0-29.05-17.68-14.85-35.63S614,251.65,614,251.65Z"/><polygon class="cls-10" points="627.96 230.72 645.18 228.48 650.84 234.14 639.4 237.83 627.96 230.72"/><path class="cls-12" d="M670.62,243.75l5.73-6.52s-21.73-20.53-48-12.63l1.87,7.4s13.43-2.56,18.91,4.84S670.62,243.75,670.62,243.75Z"/><path class="cls-13" d="M604.13,253.76l8.3-.79,2.1,6.58s.93,5.53,6.19,11.72c0,0,2.37-24.75,19.49-34.49l-9.48-7.51a13,13,0,0,1-10.4-7.9S599.66,236.91,604.13,253.76Z"/><path class="cls-11" d="M618.48,286.67s0-55,33.44-53.32c0,0,24.1-1,27,6.85a14.12,14.12,0,0,1-2.24,13.69S642.38,239.34,618.48,286.67Z"/><path class="cls-8" d="M628.36,319.49s15.14-69,36.47-62.24,11.32,59.7-19.75,93.4C645.08,350.65,611.18,368,628.36,319.49Z"/><polygon class="cls-14" points="746.03 634.49 733.55 627.29 604.11 702.94 616.59 710.14 746.03 634.49"/><polygon class="cls-14" points="733.55 618.56 733.55 627.29 746.03 634.49 746.03 625.76 733.55 618.56"/><polygon class="cls-15" points="746.03 625.76 733.55 618.56 604.11 694.21 616.59 701.41 746.03 625.76"/><polygon class="cls-16" points="741.08 637.38 741.08 628.66 728.71 621.39 729.82 620.74 742.19 628.01 742.19 636.73 741.08 637.38"/><polygon class="cls-16" points="666.85 672.04 654.38 664.83 654.38 497.36 666.68 497.36 666.85 672.04"/><polygon class="cls-14" points="673.75 493.93 673.75 668.01 666.85 672.04 666.85 497.36 673.75 493.93"/><polygon class="cls-16" points="692.46 657.08 679.99 649.88 679.99 482.4 692.29 482.4 692.46 657.08"/><polygon class="cls-14" points="699.36 478.98 699.36 653.05 692.46 657.08 692.46 482.4 699.36 478.98"/><polygon class="cls-14" points="473.19 476.35 460.7 469.15 331.26 544.79 343.75 551.99 473.19 476.35"/><polygon class="cls-16" points="331.26 536.07 331.26 544.79 343.75 551.99 343.75 543.27 331.26 536.07"/><polygon class="cls-14" points="460.7 460.42 460.7 469.15 473.19 476.35 473.19 467.62 460.7 460.42"/><polygon class="cls-15" points="473.19 467.62 460.7 460.42 331.26 536.07 343.75 543.27 473.19 467.62"/><polygon class="cls-16" points="347.91 549.56 347.91 540.83 335.54 533.57 336.56 532.97 349.02 540.18 349.02 548.93 347.91 549.56"/><polygon class="cls-16" points="468.24 479.24 468.24 470.52 455.86 463.25 456.98 462.6 469.35 469.87 469.35 478.59 468.24 479.24"/><polygon class="cls-16" points="394 513.89 381.53 506.69 381.53 339.21 393.84 339.21 394 513.89"/><polygon class="cls-14" points="400.9 335.79 400.9 509.86 394 513.89 394 339.21 400.9 335.79"/><polygon class="cls-16" points="419.62 498.94 407.15 491.73 407.15 324.25 419.45 324.25 419.62 498.94"/><polygon class="cls-14" points="426.52 320.83 426.52 494.9 419.62 498.94 419.62 324.25 426.52 320.83"/><polygon class="cls-17" points="744.8 431.01 614.77 356.05 453.83 263.28 312.47 345.89 301.77 343.79 301.77 352.15 614.77 532.57 766.83 443.71 766.83 435.35 744.8 431.01"/><polygon class="cls-18" points="301.77 343.79 453.83 254.92 766.83 435.35 614.77 524.21 301.77 343.79"/><path class="cls-19" d="M686.59,445.64V424.58l-44.43-6.65L628,409.76a13,13,0,0,0-13,0L609.43,413l-25.34-3.79V430l0,0a4.33,4.33,0,0,0,2.15,4.21l55.77,32.15a12.66,12.66,0,0,0,12.71,0l30-17.53a3.56,3.56,0,0,0,1.79-3.1h0Z"/><path class="cls-19" d="M686.59,440.34V419.27l-44.43-6.64L628,404.45a13,13,0,0,0-13,0l-5.53,3.24-25.34-3.8v20.71l0,0a4.33,4.33,0,0,0,2.15,4.22L642.06,461a12.69,12.69,0,0,0,12.71,0l30-17.53a3.58,3.58,0,0,0,1.79-3.11h0Z"/><path class="cls-20" d="M613.41,341.33l.08,26a9.44,9.44,0,0,1-4.27,7.39l-18,10.39c-2.36,1.37-4.29.27-4.29-2.45l-.09-29a9.43,9.43,0,0,1,4.27-7.39l6.1-3.52-13.12,1.16v66.31l56.93-4V338.89Z"/><rect class="cls-20" x="615.13" y="358.13" width="9.1" height="28.15"/><path class="cls-21" d="M615,383.42l-28.69,16.77a4.41,4.41,0,0,0,0,7.62L642.06,440a12.66,12.66,0,0,0,12.71,0l30-17.53a3.63,3.63,0,0,0,0-6.27L628,383.39A13,13,0,0,0,615,383.42Z"/><rect class="cls-22" x="642.26" y="415.15" width="22.58" height="6.26"/><ellipse class="cls-22" cx="653.55" cy="421.41" rx="11.29" ry="5.49"/><ellipse class="cls-23" cx="653.55" cy="415.15" rx="11.29" ry="5.49"/><path class="cls-24" d="M653.93,402.78s-4.37-6.39,2.15-10C656.08,392.78,660.25,399.17,653.93,402.78Z"/><path class="cls-25" d="M649.51,403a11.21,11.21,0,0,0-11.51-.62,5.92,5.92,0,0,0-1.35,2.86s2.39-1,3.8-.62S646.55,408,649.51,403Z"/><path class="cls-25" d="M650,383l-2.17-1.16s-2.83,1.68-2.67,7.62c0,0,5.76-.86,6.66-3.22S650,383,650,383Z"/><path class="cls-26" d="M650.24,415.92c0-.14-.57-13.49-2.62-18.05l.38-.17c2.08,4.63,2.64,17.65,2.66,18.2Z"/><path class="cls-26" d="M653.26,415.57l-.41-.05a129.08,129.08,0,0,0,.73-24.11l-.72-2.48.4-.11.73,2.51A130.5,130.5,0,0,1,653.26,415.57Z"/><path class="cls-26" d="M655.8,415.55c-.34-16.42,1.67-23.54,1.69-23.61l0-.08,3.91-4.23.3.28-3.87,4.19c-.17.64-2,7.78-1.66,23.44Z"/><path class="cls-24" d="M653.79,391.39s1.51-6.6.47-9.23c0,0-2.42-2-6.45-.28C647.81,381.88,648.58,388.75,653.79,391.39Z"/><path class="cls-25" d="M657.43,392.78s0-9.43,7-10,8,9.38,8,9.38S664.93,384,657.43,392.78Z"/><path class="cls-24" d="M651,402.78s4.79,2.77-5,9.72C646,412.5,642.06,399.31,651,402.78Z"/><path class="cls-24" d="M656,409.69s.42-3.82,3-3.12,5.13,7.92,5.13,7.92A7.42,7.42,0,0,1,656,409.69Z"/><path class="cls-25" d="M656.36,400.14s2,10.63,14.65,9C671,409.17,668.93,394,656.36,400.14Z"/><path class="cls-25" d="M648.27,398s-3.34-10.48-15.21-7.57C633.06,390.47,634.17,400.68,648.27,398Z"/><rect class="cls-22" x="604.48" y="393.87" width="22.58" height="6.26"/><ellipse class="cls-22" cx="615.77" cy="400.13" rx="11.29" ry="5.49"/><ellipse class="cls-23" cx="615.77" cy="393.87" rx="11.29" ry="5.49"/><path class="cls-24" d="M616.15,381.5s-4.38-6.39,2.15-10C618.3,371.5,622.47,377.89,616.15,381.5Z"/><path class="cls-25" d="M611.73,381.76a11.21,11.21,0,0,0-11.51-.62,5.83,5.83,0,0,0-1.35,2.86s2.39-1,3.8-.62S608.76,386.71,611.73,381.76Z"/><path class="cls-25" d="M612.2,361.76,610,360.6s-2.83,1.68-2.67,7.62c0,0,5.76-.86,6.65-3.22S612.2,361.76,612.2,361.76Z"/><path class="cls-26" d="M612.46,394.64c0-.14-.58-13.49-2.62-18.05l.38-.17c2.08,4.64,2.64,17.65,2.66,18.2Z"/><path class="cls-26" d="M615.48,394.29l-.41-.05a130.07,130.07,0,0,0,.73-24.11l-.73-2.48.41-.11.72,2.52A128.92,128.92,0,0,1,615.48,394.29Z"/><path class="cls-26" d="M618,394.27c-.35-16.42,1.67-23.54,1.69-23.61l0-.08,3.9-4.23.31.28-3.87,4.2c-.17.63-2,7.78-1.66,23.43Z"/><path class="cls-24" d="M616,370.11s1.51-6.59.48-9.23c0,0-2.42-2-6.45-.28C610,360.6,610.8,367.47,616,370.11Z"/><path class="cls-25" d="M619.65,371.5s0-9.43,7-10,8,9.38,8,9.38S627.15,362.75,619.65,371.5Z"/><path class="cls-24" d="M613.23,381.5s4.79,2.77-5,9.72C608.23,391.22,604.27,378,613.23,381.5Z"/><path class="cls-24" d="M618.23,388.41s.41-3.82,3-3.12,5.14,7.92,5.14,7.92A7.42,7.42,0,0,1,618.23,388.41Z"/><path class="cls-25" d="M618.57,378.87s2,10.62,14.66,9C633.23,387.89,631.15,372.75,618.57,378.87Z"/><path class="cls-25" d="M610.49,376.76s-3.34-10.48-15.21-7.57C595.28,369.19,596.39,379.4,610.49,376.76Z"/><polygon class="cls-20" points="675.22 412.21 675.22 364.47 686.59 359.44 686.59 426.81 675.22 412.21"/><path class="cls-19" d="M686.59,363.16V342.09l-44.43-6.65L628,327.27a13,13,0,0,0-13,0l-5.53,3.24-25.34-3.8v20.71l0,0a4.33,4.33,0,0,0,2.15,4.22l55.77,32.14a12.66,12.66,0,0,0,12.71,0l30-17.54a3.55,3.55,0,0,0,1.79-3.1h0Z"/><path class="cls-21" d="M615,306.24,586.27,323a4.41,4.41,0,0,0,0,7.62l55.77,32.15a12.69,12.69,0,0,0,12.71,0l30-17.53a3.63,3.63,0,0,0,0-6.27L628,306.2A13,13,0,0,0,615,306.24Z"/><polygon class="cls-20" points="599.34 359.22 599.34 416.29 584.09 409.88 584.09 345.91 599.34 359.22"/><path class="cls-20" d="M675.29,371.82l-41.69,5.57V435l14,13.56,39-25.89V362.6Zm-.28,44-18,10.39c-2.37,1.36-4.29.26-4.3-2.45l-.08-29a9.39,9.39,0,0,1,4.27-7.4l18-10.39c2.36-1.36,4.29-.27,4.3,2.45l.08,29A9.43,9.43,0,0,1,675,415.84Z"/><polygon class="cls-27" points="518.86 351.63 462.61 370.84 497.04 401.2 553.58 382.25 518.86 351.63"/><polygon class="cls-28" points="440.33 312.43 492.07 312.43 497.2 363.3 440.33 363.39 440.33 312.43"/><polygon class="cls-29" points="495.36 366.05 497.2 363.3 440.33 363.39 441.98 366.05 495.36 366.05"/><polygon class="cls-29" points="439.7 361.11 439.31 361.07 439.31 312.43 409.46 265.4 409.13 263.28 408.11 263.28 403.57 311.02 437.61 360.89 437.61 360.89 439.31 363.39 440.33 363.39 439.7 361.11"/><polygon class="cls-30" points="440.33 363.39 440.33 312.43 409.13 263.28 404.59 311.02 440.33 363.39"/><polygon class="cls-31" points="439.23 358.27 439.23 312.18 411.01 267.75 406.91 310.92 439.23 358.27"/><polygon class="cls-32" points="444.68 314.94 472.65 314.94 475.22 360.88 444.68 360.88 444.68 314.94"/><path class="cls-33" d="M628,230.72l2.77-1.45.92-40.42-3.69-6a31.43,31.43,0,0,0-10.79-12.64c-7.51-4.87-21.86-5.66-21.86-5.66l4.08,3.69s-15.66-.93-23.56,6.84-15.14,22.78-18.17,25.28c0,0,5.61,7.61,13.43,7.5s22.51,7.77,22.51,7.77S615.19,232.56,628,230.72Z"/><path class="cls-34" d="M571.09,207.81l3.75,18.57a91.66,91.66,0,0,0,3.08,16.78c3.42,12.84,19.12,18.5,29.46,10.16l.45-.37a17.59,17.59,0,0,0,5.53-8.84l3.54-13s6.75-.59,5.16-14.53a7.56,7.56,0,0,0-3.66-5.82c-2.74-1.52-6.42-.9-7.68,11.66l-3.69.39s-2.76-15.14-3.55-17.64-11.06-2.63-11.06-2.63S579.51,209.92,571.09,207.81Z"/><polygon class="cls-32" points="475.88 327.92 476.98 346.47 491.35 346.47 489.58 327.92 475.88 327.92"/><path class="cls-34" d="M502.87,313s-7.25,5.85-10.54,6.48-11.71,3.06-13.95,6.05-7.11,9.44-7.11,10.1.92,3.16,3.69.92c0,0-3.56,4.88.13,7s8.69,4.25,16.06-2.28,9.76-6.86,8.82-4.76-4.75,7.21-2.64,8.39,17-12.14,19-20.64S502.87,313,502.87,313Z"/><path class="cls-8" d="M578.51,264.94s-33,9.22-41.68,15.8c-7.16,5.43-30.77,24.82-38.84,31.46-1.11.91-.78,3.24.65,3.06,4.71-.59,13.39,4,17,10.24a2.77,2.77,0,0,0,4.07.75l38-28.65,26.43-10.93S577.51,283.08,578.51,264.94Z"/><polygon class="cls-35" points="423.61 303.65 423.61 291.28 436.64 311.68 436.64 322.35 423.61 303.65"/><polygon class="cls-35" points="415.43 299.41 415.43 287.03 428.47 307.44 428.47 318.1 415.43 299.41"/><polyline class="cls-36" points="549.38 206.76 411.01 267.75 406.91 310.92 439.23 358.27 571.09 377.41"/><path class="cls-33" d="M592.23,247.27a24.7,24.7,0,0,1-8.43-1.47.79.79,0,0,1-.45-1,.81.81,0,0,1,1-.45c.08,0,7.76,3,15,0a.78.78,0,0,1,1,.43.8.8,0,0,1-.43,1A20.54,20.54,0,0,1,592.23,247.27Z"/><ellipse class="cls-33" cx="595.15" cy="224" rx="2.11" ry="2.63"/><ellipse class="cls-33" cx="578.83" cy="222.79" rx="2.11" ry="2.63"/><path class="cls-33" d="M590.35,215.71s6.3-1.38,10.16.39c0,0,1.55,1.78,1,1.85s-6.88-.66-11.36.26C590.11,218.21,590,216.1,590.35,215.71Z"/><path class="cls-33" d="M573.3,216.17a8.4,8.4,0,0,1,7.16-.1l.47,2.14s-4-1.64-7-.26C573.89,218,573,216.89,573.3,216.17Z"/></g></svg>