<?xml version="1.0" encoding="utf-8"?>
<!-- Generator: Adobe Illustrator 22.0.1, SVG Export Plug-In . SVG Version: 6.00 Build 0)  -->
<svg version="1.1" id="Vector_Graphics" xmlns="http://www.w3.org/2000/svg" xmlns:xlink="http://www.w3.org/1999/xlink" x="0px"
	 y="0px" viewBox="0 0 446 399" style="enable-background:new 0 0 446 399;" xml:space="preserve">
<style type="text/css">
	.st0{fill:#E3F0EA;}
</style>
<g>
	<path class="st0" d="M349.7,145.7l-2.8,2.8h-81.4l-2.8-2.8l-6.7-6.7l-10.3-10.3l-8-8l-0.2-0.2h-0.3h-64.2h-0.3l-0.2,0.2l-8,8
		l-1.8,1.8h-14.6l-1.8-1.8l-1.5-1.5v-26.8v-0.3l-0.2-0.2l-13.6-13.6c0.4-0.6,0.6-1.3,0.6-2h0v0v0h0c0-0.8-0.3-1.6-0.8-2.2
		c-0.1-0.1-0.2-0.3-0.3-0.4c-0.7-0.7-1.6-1.1-2.6-1.1v0h0h0v0c-1,0-1.9,0.4-2.6,1.1c-0.1,0.1-0.2,0.2-0.3,0.4
		c-0.5,0.6-0.8,1.4-0.8,2.2h0v0v0h0c0,1,0.4,1.9,1.1,2.6c0.7,0.7,1.6,1.1,2.6,1.1v0h0h0v0c0.8,0,1.6-0.3,2.2-0.7l13.4,13.4v26.8v0.3
		l0.2,0.2l0.8,0.8l2.9,2.9l0.2,0.2h0.3h15.1h0.3l0.2-0.2l2.9-2.9l7-6.9h63.7l7,6.9l10.3,10.3l6.7,6.7l3.8,3.8l0.2,0.2h0.3h82h0.3
		l0.2-0.2l3.8-3.8l0.5-0.5l6.3,0.1l0.5,0.5l4,4l0.2,0.2h0.3h15.7l0.5,0.7l0.9,1.2h-117l-1.2-1.2l-4.8-4.8l-6.7-6.7l-10.3-10.3
		l-4.6-4.6l-0.2-0.2h-0.3h-59.4h-0.3l-0.2,0.2l-4.6,4.6l-5.3,5.3h-20.1l-4-4.1v-1.3V104v-0.3l-0.2-0.2l-13.7-13.7l-0.2-0.2H127h-4.7
		c-0.3-1.6-1.7-2.8-3.4-2.8c-1.9,0-3.4,1.5-3.4,3.5c0,1.9,1.5,3.5,3.4,3.5c1.7,0,3.1-1.2,3.4-2.8h4.4l13.3,13.3v24.5v1.5v0.3
		l0.2,0.2l4.4,4.4l0.2,0.2h0.3h20.7h0.3l0.2-0.2l6.4-6.4l3.5-3.5H235l3.5,3.5l10.3,10.3l6.7,6.7l4.8,4.8l2.3,2.3l0.2,0.2h0.3h118.5
		h1.3l-0.8-1l-1.1-1.5l-1.3-1.7l-0.2-0.3h-0.3h-15.8l-2.9-2.9l-1.6-1.6l-0.2-0.2l-0.3,0l-6.8-0.1l-0.3,0l-0.2,0.2L349.7,145.7z
		 M128.1,86.8c-0.7,0-1.3-0.3-1.8-0.7c-0.5-0.5-0.7-1.1-0.8-1.8h0v0v0h0c0-0.7,0.3-1.3,0.7-1.8c0.2-0.2,0.4-0.3,0.6-0.4
		c0.4-0.2,0.8-0.3,1.2-0.3v0h0h0v0c0.5,0,0.9,0.1,1.2,0.3c0.2,0.1,0.4,0.3,0.6,0.4c0.5,0.5,0.8,1.1,0.8,1.8h0v0v0h0
		c0,0.7-0.3,1.3-0.7,1.8C129.4,86.6,128.8,86.8,128.1,86.8L128.1,86.8L128.1,86.8L128.1,86.8L128.1,86.8z"/>
	<path class="st0" d="M16.1,223.9c0.3-0.2,0.7-0.4,0.9-0.7c0.5-0.5,0.9-1.1,1.1-1.8h3.8h0.3l0.2-0.2l0.9-0.9l0,0l3.3-3.3l3.3-3.3
		l27.9,0l3.4,3.4l1.4,1.4l0.2,0.2h0.3h41.2l1.7,1.7l3.6,3.6l0.5,0.5l6.5,6.5l0,0l0.2,0.2h0.3H127h0.3l0.2-0.2l0,0l2.6-2.6
		c0.6,0.4,1.2,0.6,1.9,0.6c1.9,0,3.5-1.5,3.5-3.4c0-0.5-0.1-1.1-0.4-1.5c-0.6-1.1-1.7-1.9-3.1-1.9c-1.4,0-2.5,0.8-3.1,1.9
		c-0.2,0.5-0.4,1-0.4,1.5c0,0.7,0.2,1.4,0.6,1.9l-2.4,2.4h-9.6l-5.3-5.3l-0.6-0.6l-3.6-3.6l-2.8-2.8l-0.2-0.2h-0.3H63.2l-0.3-0.3
		l-3.9-3.9l-0.6-0.6l-0.1-0.1l-0.1-0.1H58l-28.4,0h-0.3l-0.1,0.1l-0.1,0.1l-0.5,0.5l-3.9,3.9l-3.1,3.1H19h-0.7c-0.1-1-0.5-2-1.2-2.7
		l0,0c-0.1-0.1-0.3-0.3-0.5-0.4c-0.7-0.5-1.5-0.8-2.4-0.8v0h0h0v0c-0.9,0-1.7,0.3-2.4,0.8c-0.2,0.1-0.3,0.3-0.5,0.4h0
		c-0.7,0.7-1.2,1.8-1.2,2.9h0v0v0v0h0c0,1.1,0.5,2.1,1.2,2.9c0.3,0.3,0.6,0.5,0.9,0.7c0.6,0.3,1.2,0.5,2,0.5v0h0h0v0
		C14.9,224.4,15.5,224.2,16.1,223.9z M14.1,223.1c-0.8,0-1.5-0.3-2-0.8c-0.5-0.5-0.8-1.2-0.8-2h0v0v0v0h0c0-0.8,0.3-1.5,0.8-2l0,0
		c0.5-0.5,1.2-0.8,2-0.8v0h0h0v0c0.8,0,1.5,0.3,2,0.8v0c0.5,0.5,0.8,1.2,0.8,2h0v0v0v0h0c0,0.8-0.3,1.5-0.8,2
		C15.6,222.8,14.9,223.1,14.1,223.1L14.1,223.1L14.1,223.1L14.1,223.1L14.1,223.1z"/>
	<path class="st0" d="M31.9,250.8h2.6h0.3l0.2-0.2l0,0l3.1-3.2l2.7-2.7l5.8-5.9h5.9h0.3l0.2-0.2l4.1-4.1l1.4-1.4h13.9h0.3l0.2-0.2
		l2.2-2.1l3.1-3h20.7l3,3l3.6,3.6l10.2,10.2l0,0l0.2,0.2h0.3h11.8h0.3l0.2-0.2l0,0l10.2-10.2l3.6-3.6l2.2-2.2h5h0.3l0.2-0.2l4.6-4.6
		l3.6-3.6l1.7-1.7h21h0.3l0.2-0.2l1.4-1.4l3.9-3.9l0.6-0.6l0.3-0.3l0.4-0.4h26.6l0.4,0.4l0.3,0.3l0.6,0.6l3.9,3.9l3.3,3.3l0.4,0.4
		l0.2,0.2h0.3h25l3,3l5.7,5.7h-54.2H203l-0.2,0.2l-1.1,1.1l-3.6,3.6L188,244.6h-55.3l-0.3,0l-0.1,0.1l0,0l-2.7,2.7l-9.3,9.3h-5.1
		c-0.3-1.6-1.7-2.8-3.4-2.8c-1.9,0-3.5,1.5-3.5,3.5c0,0.2,0,0.3,0,0.5c0.2,1.7,1.7,3,3.4,3c1.7,0,3.1-1.2,3.4-2.8h5.4h0.3l0.1-0.1
		l0,0l10.4-10.4l1.6-1.6h55.3h0.3l0.2-0.2l0.9-0.9l10.2-10.2l3.6-3.6h55.4l1.5,0l0,0l-1.1-1.1l-5.9-5.9l-3.6-3.6l-0.5-0.5l-0.2-0.2
		H249h-25l-2.6-2.6l-3.9-3.9l-0.6-0.6l-0.3-0.3l-1.2-1.2l-0.3-0.3l-0.2-0.2h-0.3h-27.2h-0.3l-0.2,0.2l-0.3,0.3l-1.2,1.2l-0.3,0.3
		l-0.6,0.6l-3.9,3.9l-0.3,0.3h-20.9h-0.3l-0.2,0.2l-2.8,2.8l-3.6,3.6l-3.5,3.5h-4.8c0.3-0.2,0.5-0.4,0.7-0.6
		c0.7-0.7,1.2-1.8,1.2-2.9h0v0v0v0h0c0-1.1-0.5-2.1-1.2-2.9c-0.3-0.3-0.6-0.5-0.9-0.7c-0.6-0.3-1.2-0.5-2-0.5v0h0h0v0
		c-0.7,0-1.4,0.2-2,0.5c-0.3,0.2-0.7,0.4-0.9,0.7h0c-0.7,0.7-1.2,1.8-1.2,2.9h0v0v0v0h0c0,1.1,0.5,2.1,1.2,2.9v0
		c0.1,0.1,0.2,0.2,0.3,0.3l-3.8,3.8l-3.6,3.6l-4.4,4.4h-11.2l-4.4-4.4l-3.6-3.6l-1.4-1.4l-5.6-5.6l-2.1-2.1l-0.2-0.2h-0.3H63.4
		l-1.3-1.3l-3.3-3.3l-0.5-0.5l-0.2-0.2h-0.3H30.1h-0.3l-0.2,0.2l-0.5,0.5l-3.3,3.3l-3.6,3.6l-7,7l-3.6,3.6l-1.4,1.4
		c-0.6-0.6-1.5-1-2.5-1c-1.9,0-3.4,1.5-3.4,3.5c0,1.9,1.5,3.4,3.4,3.4c1.9,0,3.5-1.5,3.5-3.4c0-0.5-0.1-0.9-0.3-1.3l2.5-2.5l3.6-3.6
		l7-7l3.6-3.6l2.7-2.7h27.2l2.7,2.7l2.4,2.4l0.2,0.2h0.3h35.6l1,1l5.7,5.7l1.3,1.3l3.6,3.6l5.5,5.5l0.2,0.2h0.3H128h0.3l0.2-0.2
		l5.5-5.5l3.6-3.6l3.2-3.2c0.5,0.2,1,0.3,1.5,0.3v0h0h0v0c0.4,0,0.8-0.1,1.2-0.2l-3.1,3.1l-3.6,3.6l-9.1,9.1h-11.3l-9.1-9.1
		l-3.6-3.6l-4-4l-0.2-0.2h-0.3H77.8h-0.3l-0.2,0.2l-4.2,4l-1,1H58.2H58l-0.2,0.2l-2.5,2.5l-3,3h-5.9h-0.3l-0.2,0.2l-6.9,7l-2.7,2.7
		l-2.1,2.1h-2.4c-0.2-0.9-0.6-1.6-1.3-2.1c-0.6-0.4-1.3-0.7-2.1-0.7c-0.8,0-1.5,0.3-2.1,0.7c-0.8,0.6-1.4,1.6-1.4,2.7
		c0,1.9,1.5,3.4,3.5,3.4C30.2,253.6,31.6,252.4,31.9,250.8z M142.2,226.7c-0.5,0-0.9-0.1-1.3-0.3l-0.3-0.3l-0.1,0.1
		c-0.1-0.1-0.2-0.2-0.3-0.2l0,0c-0.5-0.5-0.8-1.2-0.8-2h0v0v0v0h0c0-0.8,0.3-1.5,0.8-2l0,0c0.5-0.5,1.2-0.8,2-0.8v0h0h0v0
		c0.8,0,1.5,0.3,2,0.8c0.5,0.5,0.8,1.2,0.8,2h0v0v0v0h0c0,0.8-0.3,1.5-0.8,2C143.7,226.4,143,226.7,142.2,226.7L142.2,226.7
		L142.2,226.7L142.2,226.7L142.2,226.7z"/>
	<path class="st0" d="M52.1,208.1l4.1-4.1h19.7h0.3l0.2-0.2l1.7-1.7l0.6-0.6l4.1-4.1H87c0.3,1.6,1.7,2.8,3.4,2.8
		c1.9,0,3.5-1.5,3.5-3.5c0-1.9-1.5-3.5-3.5-3.5c-1.7,0-3.1,1.2-3.4,2.8h-4.5h-0.3l-0.2,0.2l-1.3,1.3l-3.9,3.9l-0.6,0.6l-0.6,0.6
		H55.9h-0.3l-0.2,0.2l-5.2,5.2l-0.7,0.7H25.4l-0.7-0.7l-2.5-2.6c0.4-0.6,0.7-1.3,0.7-2.1c0-0.5-0.1-0.9-0.2-1.3
		c-0.1-0.2-0.2-0.4-0.3-0.6c-0.6-0.9-1.7-1.5-2.9-1.5c-1.2,0-2.3,0.6-2.9,1.5c-0.1,0.2-0.2,0.4-0.3,0.6c-0.2,0.4-0.2,0.8-0.2,1.3
		c0,1.9,1.5,3.4,3.5,3.4c0.7,0,1.3-0.2,1.8-0.5l1.7,1.8l1.7,1.8l0.2,0.2h0.3h24.7h0.3l0.2-0.2L52.1,208.1z"/>
	<path class="st0" d="M349.4,139l-5.7,5.7h-76.9l-5.7-5.7l-10.3-10.3l-11.5-11.5l-0.2-0.2h-0.3h-74.2L152,104.4v-8.6v-0.3l-0.2-0.2
		l-10.5-10.5v-0.6v-2.2v-0.6v-4.1v-0.3l-0.2-0.2l-3.8-3.8l-2.3-2.3l-0.2-0.2h-0.3H121h-0.3l-0.2,0.2l-2.3,2.3l-2.7,2.7h-2.6
		c-0.2-1.3-1.2-2.3-2.4-2.7c-0.3-0.1-0.7-0.2-1-0.2c-0.4,0-0.7,0.1-1,0.2c-1.4,0.4-2.4,1.7-2.4,3.3c0,1.9,1.5,3.5,3.5,3.5
		c1.7,0,3.1-1.2,3.4-2.8h2.8h0.3l0.1-0.1l0,0l3.7-3.7l1.2-1.2h13.1l1.2,1.2l4.5,4.5v3.6v0.8v2.2v0.8v0.3l0.2,0.2l10.5,10.5v8.6v0.3
		l0.2,0.2l13,13l0.2,0.2h0.3h74.2l10.4,10.4l10.3,10.3l6.7,6.7l0.1,0.1l0.2,0.2h0.3h77.4h0.3l0.2-0.2l0.1-0.1l6.7-6.7l2.4-2.4h6.8
		l2.4,2.4l4.3,4.3l0.2,0.2h0.3H429h0.3l0.2-0.2l4.3-4.3l0.5-0.5h12.3v-1.3h-0.7H434h-0.3l-0.2,0.2L432,139l-3.2,3.2h-60.9l-3.2-3.2
		l-3.5-3.5l-0.2-0.2h-0.3h-7.3h-0.3l-0.2,0.2L349.4,139z"/>
	<path class="st0" d="M180.6,134.7c0,1.9,1.5,3.5,3.5,3.5c1.9,0,3.5-1.5,3.5-3.5c0-0.7-0.2-1.4-0.6-1.9l2.2-2.2h27.7l3,3
		c-0.4,0.6-0.6,1.2-0.6,1.9c0,1.7,1.2,3.1,2.8,3.4c0.2,0,0.4,0.1,0.7,0.1c0.2,0,0.5,0,0.7-0.1c1.6-0.3,2.8-1.7,2.8-3.4
		c0-1.9-1.5-3.5-3.5-3.5c-0.7,0-1.4,0.2-1.9,0.6l-3.2-3.2l-0.2-0.2h-0.3h-28.3h-0.3l-0.2,0.2l-2.4,2.4c-0.6-0.4-1.2-0.6-1.9-0.6
		C182.1,131.3,180.6,132.8,180.6,134.7z"/>
	<path class="st0" d="M123.9,281.7c0-1.7-1.2-3.1-2.8-3.4v-0.4v-3.3l9-9l7.7-7.7l4.9-4.9H189h0.3l0.2-0.2l5.3-5.3l2.7-2.7l5.7-5.7
		h37l3,3c-0.6,0.7-1,1.7-1,2.7h0v0v0v0h0c0,1,0.4,2,1,2.7c0.1,0.1,0.1,0.1,0.2,0.2c0.7,0.7,1.8,1.2,2.9,1.2v0h0h0v0
		c1.1,0,2.1-0.5,2.9-1.2c0.1-0.1,0.1-0.1,0.2-0.2c0.6-0.7,1-1.7,1-2.7h0v0v0v0h0c0-1.1-0.5-2.1-1.2-2.9v0c-0.7-0.7-1.8-1.2-2.9-1.2
		v0h0h0v0c-0.8,0-1.5,0.2-2.1,0.6l-3.3-3.3l-0.2-0.2h-0.3H203h-0.3l-0.2,0.2l-6.8,6.8l-2.7,2.7l-4.3,4.3h-46.4l-0.3,0l-0.2,0.2l-6,6
		l-7.7,7.7l-8.3,8.3l-0.2,0.2v0.3v3.6v0.4c-1.6,0.3-2.8,1.7-2.8,3.4c0,1.9,1.5,3.5,3.5,3.5C122.3,285.1,123.9,283.6,123.9,281.7z
		 M246.3,241.9c0.8,0,1.5,0.3,2,0.8l0,0c0.5,0.5,0.8,1.2,0.8,2h0v0v0v0h0c0,0.8-0.3,1.5-0.8,2c-0.3,0.3-0.7,0.6-1.2,0.7
		c-0.3,0.1-0.5,0.1-0.8,0.1v0h0h0v0c-0.3,0-0.6,0-0.8-0.1c-0.4-0.1-0.9-0.4-1.2-0.7c-0.5-0.5-0.8-1.2-0.8-2h0v0v0v0h0
		c0-0.8,0.3-1.5,0.8-2h0C244.8,242.2,245.5,241.9,246.3,241.9L246.3,241.9L246.3,241.9L246.3,241.9L246.3,241.9z"/>
	<path class="st0" d="M66.7,265.6c0.1-0.3,0.1-0.6,0.1-0.9c0-0.7-0.2-1.3-0.6-1.9l4.4-4.2l0.2-0.2v-0.3v-0.2V254v-6.5v-2.7v-0.9
		l9.8-9.3l0.4-0.4h4.1c0,0.1,0,0.3,0.1,0.4c0.2,0.8,0.6,1.5,1.1,2v0c0.7,0.7,1.8,1.2,2.9,1.2v0h0h0v0c1.1,0,2.1-0.5,2.9-1.2
		c0.5-0.5,0.9-1.2,1.1-2c0.1-0.3,0.1-0.6,0.1-0.9h0v0v0h0c0-1.1-0.4-2-1.1-2.7c0-0.1-0.1-0.1-0.1-0.1c-0.7-0.7-1.8-1.2-2.9-1.2v0h0
		h0v0c-1.1,0-2.1,0.5-2.9,1.2h0c-0.1,0.1-0.1,0.1-0.1,0.2c-0.5,0.5-0.8,1.2-1,1.9h-4.4l-0.3,0l-0.2,0.2l-1.6,1.5l-9,8.6l-0.2,0.2
		v0.3v1.2v2.7v8.2v2.1l-0.1,0.1l-4.1,4c-0.6-0.4-1.3-0.6-2-0.6c-1.9,0-3.5,1.5-3.5,3.5c0,0.3,0,0.6,0.1,0.9c0.4,1.5,1.7,2.5,3.3,2.5
		C65,268.1,66.3,267,66.7,265.6z M86.5,233.6L86.5,233.6L86.5,233.6c0-0.8,0.3-1.5,0.8-2l0,0c0.4-0.4,0.8-0.6,1.3-0.7
		c0.2,0,0.4-0.1,0.6-0.1v0h0h0v0c0.2,0,0.4,0,0.6,0.1c0.5,0.1,1,0.4,1.3,0.8c0.5,0.5,0.8,1.2,0.8,2h0v0v0h0c0,0.3,0,0.6-0.1,0.9
		c-0.1,0.4-0.4,0.8-0.7,1.1c-0.5,0.5-1.2,0.8-2,0.8v0h0h0v0c-0.8,0-1.5-0.3-2-0.8l0,0c-0.3-0.3-0.5-0.7-0.7-1.1
		C86.5,234.2,86.5,233.9,86.5,233.6L86.5,233.6L86.5,233.6z"/>
	<path class="st0" d="M265.3,201.5l-0.4,0.4h-76.6l-0.4-0.4l-8.6-8.6l-0.2-0.2h-0.3h-14.3h-0.3l-0.2,0.2l-8.6,8.6l-0.6,0.6l-1,1H133
		h-0.3l-0.2,0.2l-2.8,3.1c-0.7-0.5-1.5-0.7-2.3-0.7v0h0h0v0c-1.1,0-2.1,0.5-2.9,1.2c-0.4,0.4-0.6,0.8-0.8,1.2
		c-0.2,0.5-0.3,1.1-0.3,1.7h0v0v0h0c0,0.4,0.1,0.8,0.2,1.2c0.1,0.4,0.3,0.9,0.6,1.2c0.1,0.1,0.2,0.2,0.2,0.3
		c0.1,0.1,0.1,0.1,0.2,0.2c0.2,0.2,0.4,0.3,0.6,0.5c0.7,0.5,1.5,0.7,2.3,0.7v0h0h0v0c0.9,0,1.7-0.3,2.3-0.7c0.2-0.1,0.4-0.3,0.5-0.5
		c0.1-0.1,0.1-0.1,0.2-0.2c0.1-0.1,0.2-0.2,0.2-0.3c0.3-0.4,0.5-0.8,0.6-1.2c0.1-0.4,0.2-0.8,0.2-1.2h0v0v0h0c0-0.6-0.1-1.1-0.3-1.6
		c-0.1-0.3-0.3-0.6-0.5-0.8l2.6-2.9H154h0.3l0.2-0.2l2.1-2.1l0.6-0.6l7.6-7.6h13.8l7.6,7.6l0.6,0.6l0.9,0.9l0.2,0.2h0.3h77.2h0.3
		l0.2-0.2l0.9-0.9l0.6-0.6l8.8-8.8h122.6l2.9,2.9H275.5h-0.3l-0.2,0.2l-5.7,5.7l-0.6,0.6l-3.1,3.1h-77l-3.1-3.1l-0.6-0.6l-5.2-5.2
		l-0.2-0.2h-0.3h-13.9H165l-0.2,0.2l-5.2,5.2l-0.4,0.4l-0.2,0.2v0v0.3v2.2c-0.9,0.1-1.7,0.5-2.4,1.2c-0.6,0.6-1.1,1.5-1.2,2.4
		c0,0.2,0,0.3,0,0.5h0v0v0h0c0,0.9,0.3,1.7,0.7,2.3c0.1,0.2,0.3,0.4,0.4,0.5c0.3,0.3,0.6,0.5,0.9,0.7c0.2,0.1,0.4,0.2,0.7,0.3
		c0.4,0.1,0.9,0.2,1.3,0.2v0h0h0v0c0.5,0,0.9-0.1,1.3-0.2c0.2-0.1,0.5-0.2,0.7-0.3c0.3-0.2,0.6-0.4,0.9-0.7c0.2-0.2,0.3-0.3,0.5-0.5
		c0.5-0.7,0.7-1.5,0.7-2.4h0v0v0h0c0-0.2,0-0.3,0-0.5c-0.1-0.9-0.5-1.8-1.2-2.4v0c-0.6-0.6-1.3-1-2.2-1.1v-1.9l0.5-0.5l0.6-0.6
		l4.1-4.1h13.3l4.1,4.1l0.6,0.6l4.2,4.2l0.2,0.2h0.3h77.6h0.3l0.2-0.2l4.2-4.2l0.6-0.6l4.6-4.6H403h1.5l-1.1-1.1l-4.2-4.2l-0.2-0.2
		h-0.3H275.6h-0.3l-0.2,0.2L265.3,201.5z M127.4,207c0.7,0,1.4,0.3,1.9,0.8l0.1,0.1l0.1,0.1c0.1,0.1,0.2,0.2,0.2,0.3
		c0.3,0.5,0.5,1,0.5,1.6h0v0v0h0c0,0.4-0.1,0.8-0.3,1.2c-0.1,0.3-0.3,0.6-0.6,0.8c-0.2,0.2-0.3,0.3-0.5,0.4
		c-0.2,0.1-0.4,0.2-0.7,0.3c-0.2,0.1-0.5,0.1-0.7,0.1v0h0h0v0c-0.3,0-0.5,0-0.8-0.1c-0.2-0.1-0.5-0.2-0.7-0.3
		c-0.2-0.1-0.4-0.3-0.5-0.4c-0.2-0.2-0.4-0.5-0.6-0.8c-0.2-0.4-0.3-0.8-0.3-1.2h0v0v0h0c0-0.6,0.2-1.2,0.5-1.7
		c0.1-0.1,0.2-0.2,0.3-0.3C125.9,207.3,126.6,207,127.4,207L127.4,207L127.4,207L127.4,207L127.4,207z M160.3,205.9
		c0.5,0.1,0.9,0.4,1.3,0.7l0,0c0.4,0.4,0.7,0.9,0.8,1.5c0,0.2,0,0.3,0,0.5h0v0v0h0c0,0.8-0.3,1.5-0.8,2c-0.1,0.1-0.3,0.3-0.5,0.4
		c-0.4,0.3-1,0.5-1.5,0.5v0h0h0v0c-0.6,0-1.1-0.2-1.5-0.5c-0.2-0.1-0.3-0.2-0.5-0.4c-0.5-0.5-0.8-1.2-0.8-2h0v0v0h0
		c0-0.2,0-0.3,0-0.5c0.1-0.6,0.4-1.1,0.8-1.5c0.4-0.4,0.9-0.7,1.4-0.8v0.1h0.6L160.3,205.9L160.3,205.9z"/>
	<path class="st0" d="M300.8,53.5c0,1.2,0.6,2.3,1.5,2.9c0.4,0.2,0.8,0.4,1.3,0.5v5.7l-3.4,3.4l-4.7,4.7l-0.2,0.2v0.3v2v8.9v2.2
		v14.6v0.3l0.2,0.2l7.9,7.9v10.2v0.3l0.2,0.2l10.9,10.9l0.5,0.5l0.2,0.2h0.3h18.1c0.1,0.9,0.6,1.6,1.1,2.2v0
		c0.7,0.7,1.8,1.2,2.9,1.2v0h0h0v0c1.1,0,2.1-0.5,2.9-1.2c0.7-0.7,1.2-1.8,1.2-2.9h0v0v0v0h0c0-1.1-0.5-2.1-1.2-2.9
		c-0.7-0.7-1.8-1.2-2.9-1.2v0h0h0v0c-1.1,0-2.1,0.5-2.9,1.2c-0.6,0.6-1,1.4-1.2,2.3h-17.9l-11-11v-10.2v-0.3l-0.2-0.2l-7.9-7.9V84.3
		v-2.2v-8.9v-1.7L302,66l2.7-2.7l0.2-0.2v-0.3v-6c0.5-0.1,0.9-0.3,1.3-0.5c0.9-0.6,1.6-1.7,1.6-2.9c0-1.9-1.5-3.5-3.5-3.5
		C302.4,50,300.8,51.5,300.8,53.5z M335.5,126.7c0.5-0.5,1.2-0.8,2-0.8v0h0h0v0c0.8,0,1.5,0.3,2,0.8c0.5,0.5,0.8,1.2,0.8,2h0v0v0v0
		h0c0,0.8-0.3,1.5-0.8,2c-0.5,0.5-1.2,0.8-2,0.8v0h0h0v0c-0.8,0-1.5-0.3-2-0.8l0,0c-0.5-0.5-0.8-1.2-0.8-2h0v0v0v0h0
		C334.7,127.9,335,127.2,335.5,126.7z"/>
	<path class="st0" d="M127.6,43.6l0.2,0.2l8.7,8.7v3.9v8.9h-13.9l-5.8-5.8l-0.2-0.2h-0.3H98.1l-3-3l-2.8-2.8
		c0.4-0.6,0.6-1.2,0.6-1.9c0-1.9-1.5-3.5-3.5-3.5c-1.9,0-3.5,1.5-3.5,3.5c0,1.9,1.5,3.5,3.5,3.5c0.7,0,1.4-0.2,1.9-0.6l1.9,1.9
		l4.1,4.1l0.2,0.2h0.3h18.2l5.4,5.4l0.3,0.3l0.2,0.2h0.3h14.8h0.6V66v-0.1v-9.6v-4.1V52l-0.2-0.2l-8.7-8.7v-1.9v-5.3v-0.3l-0.2-0.2
		l-4.3-4.3c0.4-0.6,0.6-1.2,0.6-1.9c0-1.9-1.5-3.5-3.5-3.5c-1.9,0-3.4,1.5-3.4,3.5c0,1.9,1.5,3.5,3.4,3.5c0.7,0,1.4-0.2,1.9-0.6
		l4.1,4.1v5v2.2V43.6z"/>
	<path class="st0" d="M162.7,75.6c1.6,0,2.9-1,3.3-2.5c0.1-0.3,0.1-0.6,0.1-1c0-1.9-1.5-3.5-3.5-3.5c-1.9,0-3.4,1.5-3.4,3.5
		c0,0.3,0.1,0.7,0.1,1C159.9,74.5,161.2,75.6,162.7,75.6z"/>
	<path class="st0" d="M275.9,12.2c0,0.7,0.2,1.4,0.6,1.9l-0.8,0.8l-0.2,0.2l0,0.3l0,3.8l0.1,9.9l-10.4,10.4h-0.7h-4.5h-0.3l-0.2,0.2
		l-1.6,1.6l-3.1,3.1l-0.2,0.2v0.3v9.1c-1.3,0.2-2.4,1.2-2.7,2.5c-0.1,0.3-0.1,0.6-0.1,0.9c0,1.9,1.5,3.4,3.5,3.4
		c1.9,0,3.5-1.5,3.5-3.4c0-0.3,0-0.6-0.1-0.9c-0.3-1.3-1.4-2.3-2.7-2.5V45l3.8-3.8l0.5-0.5h3.6h1.6h0.3l0.2-0.2l10.8-10.8l0.2-0.2
		l0-0.3l-0.2-12.4l0-1.2l0.6-0.6c0.6,0.4,1.2,0.6,2,0.6c1.9,0,3.5-1.5,3.5-3.5c0-1.9-1.5-3.5-3.5-3.5
		C277.5,8.7,275.9,10.2,275.9,12.2z"/>
	<path class="st0" d="M152.5,71.5L147,66l-4.5-4.5v-5.1v-6.9v-1.7v-0.2l-0.2-0.2l-3.3-3.7c0.5-0.7,0.9-1.6,0.9-2.5h0v0v0v0h0
		c0-1.1-0.5-2.1-1.2-2.9c-0.7-0.7-1.8-1.2-2.9-1.2v0h0h0v0c-1.1,0-2.1,0.5-2.9,1.2c-0.7,0.7-1.2,1.8-1.2,2.9h0v0v0v0h0
		c0,1.1,0.5,2.1,1.2,2.9c0.7,0.7,1.8,1.2,2.9,1.2v0h0h0v0c0.8,0,1.6-0.3,2.3-0.7l3.2,3.5v8.3v5.4V62l0.2,0.2l3.8,3.8l6.6,6.6
		l0.2,0.2h0.3h7.1v-0.6v-0.6H152.5z M135.7,44c-0.8,0-1.5-0.3-2-0.8c-0.5-0.5-0.8-1.2-0.8-2h0v0v0v0h0c0-0.8,0.3-1.5,0.8-2
		c0.5-0.5,1.2-0.8,2-0.8v0h0h0v0c0.8,0,1.5,0.3,2,0.8c0.5,0.5,0.8,1.2,0.8,2h0v0v0v0h0c0,0.7-0.3,1.4-0.7,1.8l-0.5,0.4
		C136.9,43.8,136.4,44,135.7,44L135.7,44L135.7,44L135.7,44L135.7,44z"/>
	<path class="st0" d="M155.6,32.4v0.3l0.2,0.2l8.3,8.3l1.1,1.1l0.2,0.2l0.3,0l7.2,0l11.5,11.5l0.2,0.2h0.3l16.5,0l2.7,0l2.2,2.2
		l3,3.1l0.2,0.2h0.3h10.2l6.4,6.4l5,5v2.1v3.5c-1.6,0.3-2.8,1.7-2.8,3.4c0,0.7,0.2,1.4,0.6,2c0.6,0.9,1.7,1.4,2.8,1.4
		c1.2,0,2.2-0.6,2.8-1.4c0.4-0.6,0.6-1.3,0.6-2c0-1.7-1.2-3.1-2.8-3.4v-3.5v-2.4v-0.3l-0.2-0.2l-4.3-4.3l-7.5-7.5l-0.2-0.2H220
		h-10.2l-2-2l-3.2-3.3l-0.2-0.2h-0.3l-4.4,0l-14.7,0l-11.5-11.5l-0.2-0.2h-0.3l-7.2,0l0,0l-9-9V18.3v-0.2l-0.2-0.2l-3.3-3.9
		c0.5-0.6,0.8-1.3,0.8-2.2c0-1.9-1.5-3.5-3.5-3.5c-1.9,0-3.4,1.5-3.4,3.5c0,1.9,1.5,3.4,3.4,3.4c0.6,0,1.2-0.2,1.7-0.5l3.2,3.7V32.4
		z"/>
	<path class="st0" d="M37.7,178.1c0.4-0.6,0.6-1.2,0.6-1.9c0-1.9-1.5-3.5-3.5-3.5c-1.9,0-3.4,1.5-3.4,3.5c0,1.9,1.5,3.5,3.4,3.5
		c0.7,0,1.4-0.2,1.9-0.6l2.5,2.5l0.2,0.2h0.3H61h0.3l0.2-0.2l1.6-1.6l14.8-14.8h11.1l15.9,15.9l0.2,0.2h0.3h6l5.6,5.6
		c-0.4,0.6-0.6,1.2-0.6,1.9c0,1.9,1.5,3.5,3.5,3.5c1.9,0,3.5-1.5,3.5-3.5c0-1.9-1.5-3.5-3.5-3.5c-0.7,0-1.4,0.2-1.9,0.6l-5.8-5.8
		l-0.2-0.2h-0.3h-6l-15-15l-0.8-0.8l-0.2-0.2h-0.3H77.6h-0.3l-0.2,0.2l-0.8,0.8l-14.8,14.8l-0.8,0.8H39.9L37.7,178.1z"/>
	<path class="st0" d="M314.1,237.3h-0.3h-51.3h-0.3l-0.2,0.2l-7.3,7.3l-2.7,2.7l-10.5,10.5l-2.6,2.6h-10.9l-2.6-2.6l-1-1l-0.2-0.2
		h-0.3h-5.3h-0.3l-0.2,0.2l-1,1l-2.8,2.8l-4.8,4.8l-1,1h-22.3l-1-1l-4.5-4.5h21.5h0.3l0.2-0.2l1.8-1.8c0.6,0.4,1.2,0.6,2,0.6
		c1.3,0,2.5-0.8,3.1-1.9c0.2-0.5,0.4-1,0.4-1.6c0-1.9-1.5-3.5-3.5-3.5c-1.9,0-3.4,1.5-3.4,3.5c0,0.6,0.1,1.1,0.4,1.6
		c0.1,0.1,0.1,0.2,0.2,0.4l-1.6,1.6h-22.7h-1.5l1.1,1.1l4.7,4.7l2.1,2.1l0.2,0.2h0.3h22.9h0.3l0.2-0.2l2.1-2.1l4.1-4.1l3.5-3.5h4.8
		l3.6,3.6l0.2,0.2h0.3h11.5h0.3l0.2-0.2l3.7-3.7l10.5-10.5l2.7-2.7l6.2-6.2h50.7l1.7,1.7h-50.8h-0.3l-0.2,0.2l-4.3,4.3l-2.7,2.7
		l-10.5,10.5l-7.7,7.7l-0.3,0.3h-14.2c0-0.1,0-0.2-0.1-0.3c-0.2-0.6-0.5-1.1-1-1.6c-0.7-0.7-1.8-1.2-2.9-1.2v0h0h0v0
		c-1.1,0-2.1,0.5-2.9,1.2h0c-0.4,0.4-0.8,1-1,1.6c-0.1,0.4-0.2,0.8-0.2,1.3h0v0v0h0c0,1.1,0.5,2.1,1.2,2.9c0.7,0.7,1.8,1.2,2.9,1.2
		v0h0h0v0c1.1,0,2.1-0.5,2.9-1.2c0.7-0.7,1.1-1.6,1.2-2.7h14.3h0.3l0.2-0.2l1.3-1.3l7.7-7.7l10.5-10.5l2.7-2.7l3.2-3.2h52h1.5
		l-1.1-1.1l-3-3L314.1,237.3z M223.4,266.9L223.4,266.9L223.4,266.9c0,0.8-0.3,1.5-0.8,2c-0.5,0.5-1.2,0.8-2,0.8v0h0h0v0
		c-0.8,0-1.5-0.3-2-0.8c-0.5-0.5-0.8-1.2-0.8-2h0v0v0h0c0-0.5,0.1-0.9,0.3-1.3c0.1-0.3,0.3-0.5,0.5-0.7l0,0c0.5-0.5,1.2-0.8,2-0.8v0
		h0h0v0c0.8,0,1.5,0.3,2,0.8c0.2,0.2,0.4,0.4,0.5,0.7C223.2,265.9,223.4,266.4,223.4,266.9L223.4,266.9L223.4,266.9z"/>
	<path class="st0" d="M46.2,187c0-1.9-1.5-3.5-3.5-3.5c-1.7,0-3.1,1.2-3.4,2.8H37l-9.7-9.7v-10.8v-0.9v-1.4v-0.3l-0.2-0.2l-2.2-2.2
		l-1.4-1.4c0.2-0.3,0.3-0.6,0.4-0.9c0.1-0.4,0.2-0.8,0.2-1.2h0v0v0v0h0c0-1.1-0.5-2.1-1.2-2.9c-0.6-0.6-1.3-1-2.1-1.1
		c-0.2,0-0.5-0.1-0.8-0.1v0h0h0v0c-0.3,0-0.5,0-0.8,0.1c-0.8,0.2-1.6,0.6-2.1,1.1c-0.7,0.7-1.2,1.8-1.2,2.9h0v0v0v0h0
		c0,0.4,0.1,0.8,0.2,1.2c0.2,0.6,0.5,1.2,1,1.7v0c0.2,0.2,0.5,0.5,0.8,0.6c0.6,0.4,1.3,0.6,2.1,0.6v0h0h0v0c0.8,0,1.5-0.2,2.1-0.6
		c0.2-0.1,0.4-0.3,0.6-0.4l0.4,0.4l1.8,1.8l1.1,1.1v0.3v0.8v12v0.3l0.2,0.2l10.1,10.1l0.2,0.2h0.3h2.6c0.3,1.6,1.7,2.8,3.4,2.8
		C44.7,190.4,46.2,188.9,46.2,187z M20.1,160.1c-0.8,0-1.5-0.3-2-0.8l0,0c-0.2-0.2-0.4-0.5-0.6-0.8c-0.2-0.4-0.3-0.8-0.3-1.2h0v0v0
		v0h0c0-0.8,0.3-1.5,0.8-2c0.5-0.5,1.2-0.8,2-0.8v0h0h0v0c0.8,0,1.5,0.3,2,0.8c0.5,0.5,0.8,1.2,0.8,2h0v0v0v0h0
		c0,0.4-0.1,0.8-0.3,1.2l0,0l0,0l-0.4,0.4l-0.5,0.4l0.1,0.1C21.3,159.9,20.7,160.1,20.1,160.1L20.1,160.1L20.1,160.1L20.1,160.1
		L20.1,160.1z"/>
	<path class="st0" d="M123.4,325.5l-3.5-3.5l-0.2-0.2h-0.3h-2.6c-0.3-1.6-1.7-2.8-3.4-2.8c-1.9,0-3.5,1.5-3.5,3.5
		c0,1.3,0.8,2.5,1.9,3.1c0.5,0.2,1,0.4,1.6,0.4c0.6,0,1.1-0.1,1.6-0.4c0.9-0.5,1.6-1.4,1.8-2.4h2.3l2.4,2.4l1.5,1.5l0.2,0.2h0.3
		h14.9h0.3l0.2-0.2l1.5-1.5l3.1-3.1l0.2-0.2v-0.3v-7.6l1.1-1.1l1.9-1.9l1.2-1.2l2.2-2.2l4.1-4.1l0.2-0.2v-0.3v-3.9v-6.9l12.6-12.6
		h74.9h0.3l0.2-0.2l1.9-1.9l12.3-12.3l7.7-7.7l5.1-5.1h33.6l5.1,5.1l5.6,5.6v2.1v1.6l-1.6-1.6l-7.7-7.7l-1.5-1.5l-0.2-0.2h-0.3
		h-34.1h-0.3l-0.2,0.2l-1.5,1.5l-7.7,7.7l-12.3,12.3l-4.4,4.4h-72.4h-0.3l-0.2,0.2l-5,5l-0.2,0.2v0.3v3.2c-1.6,0.3-2.8,1.7-2.8,3.4
		c0,1.9,1.5,3.5,3.4,3.5c1.9,0,3.5-1.5,3.5-3.5c0-1.7-1.2-3.1-2.8-3.4v-3l4.6-4.6h72.4h0.3l0.2-0.2l5.4-5.4l12.3-12.3l7.7-7.7
		l0.4-0.4h33.6l0.4,0.4l7.7,7.7l3.6,3.6l1.1,1.1v-1.5v-3.2v-2.4v-0.3l-0.2-0.2l-4.9-4.9l-6.2-6.2l-0.2-0.2l-0.3,0h-34.1h-0.3
		l-0.2,0.2l-6.2,6.2l-7.7,7.7l-12.3,12.3l-0.8,0.8h-74.9h-0.3l-0.2,0.2l-13,13l-0.2,0.2v0.3v7.9v2.9l-4.8,4.8l-2.2,2.2l-1.2,1.2
		l-1.9,1.9l-0.4,0.4l-0.2,0.2v0.3v7.6l-3.9,3.9l-0.4,0.4h-14.4L123.4,325.5z"/>
	<path class="st0" d="M170.4,115.1h0.3h68.6l13.6,13.6l10.3,10.3l3.5,3.5l0.2,0.2h0.3h31.8h0.3l0.2-0.2l3.5-3.5l8.8-8.8l0.5-0.5
		l-0.5-0.5l-0.6-0.6l-9.9-9.9V111v-0.3l-0.2-0.2l-9-9V84.3v-2.2v-2.4v-0.3l-0.2-0.2l-6-6l-3.8-3.8V66v-3.6c1.6-0.3,2.8-1.7,2.8-3.4
		c0-1.1-0.5-2.1-1.3-2.7c-0.6-0.5-1.3-0.7-2.1-0.7c-0.8,0-1.5,0.3-2.1,0.7c-0.8,0.6-1.3,1.6-1.3,2.7c0,1.7,1.2,3.1,2.8,3.4V66v3.6
		v0.3l0.2,0.2l3,3l6.8,6.8v2.2v2.2v17.6v0.3l0.2,0.2l9,9v7.7v0.3l0.2,0.2l9.2,9.2l1.1,1.1L301,139l-2.4,2.4h-31.3l-2.4-2.4
		l-10.3-10.3L240,114l-0.2-0.2h-0.3h-68.6l-3.1-3.1c0.4-0.6,0.6-1.2,0.6-1.9c0-1.9-1.5-3.5-3.5-3.5c-1.9,0-3.4,1.5-3.4,3.5
		c0,1.9,1.5,3.4,3.4,3.4c0.7,0,1.4-0.2,1.9-0.6l3.3,3.3L170.4,115.1z"/>
	<path class="st0" d="M142.9,76.1v5.3v0.3l0.2,0.2l0.2,0.2l2.2,2.2l3.1,3.1l0.2,0.2h0.3h15l12.8,12.8l0.2,0.2h0.3h9.5l10.6,10.6
		l0.2,0.2h0.3h44.7l7.8,7.8l1.1,1.1v-1.5V113v-0.3l-0.2-0.2l-8.3-8.3l-0.2-0.2h-0.3h-26.9l-8.4-8.4l3.4-3.4h5.8
		c0.4,1.5,1.7,2.7,3.4,2.7c1.6,0,3-1.1,3.4-2.7h22.6l11.4,11.4v22v0.3l0.2,0.2l2.6,2.6l10.3,10.3l0.5,0.5l0.2,0.2h0.3h22.5h0.3
		l0.2-0.2l0.5-0.5l2.9-2.9l1.1-1.1h-1.5h-23.1l-6.3-6.3l-4.6-4.6V99.4v-0.3l-0.2-0.2l-14.7-14.7l-2.2-2.2l-7.3-7.3v-1.6V68v-0.1
		c0.2,0.4,0.4,0.7,0.7,1v0c0.7,0.7,1.8,1.2,2.9,1.2v0h0h0v0c1.1,0,2.1-0.5,2.9-1.2c0.7-0.7,1.2-1.8,1.2-2.9h0v0v0v0h0
		c0-1-0.4-2-1-2.7l5.7-5.7l0.2-0.2v-0.3v-0.9v-8.8v-0.3l-0.2-0.2l-2.7-2.7v-3.2V26.8v-0.3l-0.2-0.2l-5.4-5.4l-0.2-0.2H242h-7.5
		l-1.4-1.4c0.4-0.6,0.6-1.2,0.6-1.9c0-1.9-1.5-3.5-3.5-3.5c-1.9,0-3.4,1.5-3.4,3.5c0,1.9,1.5,3.5,3.4,3.5c0.7,0,1.4-0.2,1.9-0.6
		l1.6,1.6L234,22h0.3h7.5l5,5v14.1v3.4v0.3L247,45l2.7,2.7v8.6v0.6l-5.6,5.6c-0.6-0.4-1.3-0.6-2.1-0.6v0h0h0v0
		c-1.1,0-2.1,0.5-2.9,1.2c-0.7,0.7-1.2,1.8-1.2,2.9h0v0v0v0h0c0,0.6,0.1,1.1,0.3,1.6l-0.1-0.1l-1.5-1.5l-9.7-9.7l-6.9-6.9l-0.2-0.2
		h-0.3h-19.4l-3.7-3.7l-0.2-0.2H196h-8.3l-4.2-4.2l-8.7-8.7V16.9v-0.3l-0.2-0.2l-1.2-0.9c0.2-0.5,0.4-1,0.4-1.6
		c0-1.9-1.5-3.5-3.5-3.5c-1.9,0-3.4,1.5-3.4,3.5c0,1.9,1.5,3.4,3.4,3.4c0.9,0,1.7-0.3,2.3-0.9l1,0.8v15.5V33l0.2,0.2l8,8l5.3,5.3
		l0.2,0.2h0.3h8.3l3.7,3.7l0.2,0.2h0.3h19.4l5.8,5.8l9.7,9.7l2.3,2.3v4.9V75v0.3l0.2,0.2l6.6,6.6l2.2,2.2l15.4,15.4v24.6v0.3
		l0.2,0.2l3.9,3.9l7.4,7.4l0.2,0.2h0.3h21.8l-2,2h-22l-9.6-9.6l-3.3-3.3v-22v-0.3l-0.2-0.2l-11.8-11.8l-0.2-0.2h-0.3h-22.8
		c-0.2-1.7-1.7-3-3.4-3c-1.7,0-3.2,1.3-3.4,3h-6H210l-0.2,0.2l-4,4l-0.5,0.5l0.5,0.5l9,9l0.2,0.2h0.3h26.9l7.9,7.9v4l-6.9-6.9
		l-0.2-0.2h-0.3h-44.7l-10.6-10.6l-0.2-0.2H187h-9.5l-12.8-12.8l-0.2-0.2h-0.3h-15l-2-2l-2.2-2.2l-0.9-0.9v-5.3v-0.3l-0.2-0.2
		l-2.3-2.3l-5.5-5.5l-0.2-0.2h-0.3h-23.3L111,66l-4-4l-0.2-0.2h-0.3H92.9l-5.5-5.5l-9.7-9.7c0.4-0.6,0.6-1.2,0.6-1.9
		c0-1.9-1.5-3.5-3.5-3.5c-1.9,0-3.5,1.5-3.5,3.5c0,1.9,1.5,3.4,3.5,3.4c0.7,0,1.4-0.2,1.9-0.6l8.8,8.8l6.6,6.6l0.2,0.2h0.3h13.6
		l2.9,2.9l2.6,2.6l0.2,0.2h0.3h23.3l4.4,4.4L142.9,76.1z M239.2,66L239.2,66L239.2,66L239.2,66L239.2,66L239.2,66
		c0-0.8,0.3-1.5,0.8-2c0.5-0.5,1.2-0.8,2-0.8v0h0h0v0c0.8,0,1.5,0.3,2,0.8c0.5,0.5,0.8,1.2,0.8,2h0v0v0v0h0c0,0.8-0.3,1.5-0.8,2
		c-0.5,0.5-1.2,0.8-2,0.8v0h0h0v0c-0.8,0-1.5-0.3-2-0.8l0,0C239.5,67.5,239.2,66.8,239.2,66z"/>
	<path class="st0" d="M222.3,384.7c0-0.7-0.2-1.4-0.6-2l2.9-2.9l0.5-0.5h7.6h0.3l0.2-0.2l6.3-6.3l0.2-0.2v-0.3v-17.6l3.2-3.2
		l4.5-4.5l6.8-6.8l0.2-0.2v-0.3v-0.5v-7.1v-2.7c0.8-0.2,1.6-0.6,2.2-1.1c0.7-0.7,1.2-1.8,1.2-2.9h0v0v0v0h0c0-1.1-0.5-2.1-1.2-2.9
		c-0.7-0.7-1.8-1.2-2.9-1.2v0h0h0v0c-1.1,0-2.1,0.5-2.9,1.2h0c-0.7,0.7-1.2,1.8-1.2,2.9h0v0v0v0h0c0,1.1,0.5,2.1,1.2,2.9
		c0.6,0.6,1.4,1,2.3,1.2v0v2.7v7.1v0.3l-7.5,7.5l-4.5,4.5l-2.5,2.5l-0.2,0.2v0.3v17.6l-5.9,5.9h-7.6h-0.3l-0.2,0.2l-1.5,1.5l-2,2
		c-0.6-0.4-1.2-0.6-1.9-0.6c-1.9,0-3.4,1.5-3.4,3.5c0,1.9,1.5,3.5,3.4,3.5C220.8,388.1,222.3,386.6,222.3,384.7z M253.7,328.3
		c-0.8,0-1.5-0.3-2-0.8c-0.5-0.5-0.8-1.2-0.8-2h0v0v0v0h0c0-0.8,0.3-1.5,0.8-2l0,0c0.5-0.5,1.2-0.8,2-0.8v0h0h0v0
		c0.8,0,1.5,0.3,2,0.8c0.5,0.5,0.8,1.2,0.8,2h0v0v0v0h0c0,0.8-0.3,1.5-0.8,2C255.2,327.9,254.5,328.3,253.7,328.3L253.7,328.3
		L253.7,328.3L253.7,328.3L253.7,328.3z"/>
	<path class="st0" d="M302.7,272.8h-0.3h-34.6h-0.3l-0.2,0.2l-4.9,4.9l-0.4,0.4l-0.2,0.2v0.3V298l-9.9,9.9l-2.2,2.2l-1.2,1.2
		l-1.9,1.9L235.9,324l-0.2,0.2v0.3v1v6.7v2.3l-4.8,4.8l-7.8,7.8l-4.5,4.5l-3.4,3.4h-16.5h-0.3l-0.2,0.2l-9.7,9.7l-0.2,0.2v0.3v10.4
		c-0.9,0.1-1.8,0.5-2.4,1.2l0,0c-0.7,0.7-1.2,1.8-1.2,2.9h0v0v0h0v0c0,1.1,0.5,2.1,1.2,2.9c0.7,0.7,1.8,1.2,2.9,1.2v0h0h0v0
		c1.1,0,2.1-0.5,2.9-1.2c0.7-0.7,1.2-1.8,1.2-2.9v0h0v0v0h0c0-1.1-0.5-2.1-1.2-2.9c-0.6-0.6-1.3-1-2.1-1.1v-10.2l9.3-9.3h16.5h0.3
		l0.2-0.2l4.5-4.5l4.5-4.5l7.8-7.8l4-4l0.2-0.2v-0.3v-2.6v-6.7v-0.7l11.6-11.6l1.9-1.9l1.2-1.2l2.2-2.2l9.2-9.2l0.2-0.2v-0.3V279
		l1.1-1.1l3.8-3.8h34l3.8,3.8l0,0l-6.6,6.6l-0.2,0.2v0.3v13l-5.4,5.4l-0.2,0.2v0.3v4.1v2.2v1.2v1.9v4.1l-7.6,7.6
		c-0.5-0.4-1.2-0.6-1.9-0.6c-1,0-1.9,0.4-2.6,1.1c-0.5,0.6-0.9,1.4-0.9,2.3c0,0.7,0.2,1.4,0.6,1.9l-2.5,2.5l-2.2,2.2l-0.2,0.2v0.3v3
		c-0.9,0.2-1.7,0.7-2.2,1.4c-0.4,0.6-0.6,1.2-0.6,2c0,1.9,1.5,3.4,3.5,3.4c1.9,0,3.5-1.5,3.5-3.4c0-0.7-0.2-1.4-0.6-2
		c-0.5-0.7-1.3-1.3-2.2-1.4v-2.7l2.9-2.9l1.6-1.6c0.6,0.4,1.2,0.6,2,0.6c1.9,0,3.5-1.5,3.5-3.5c0-0.7-0.2-1.4-0.6-2l0.3-0.3l7.4-7.4
		l0.2-0.2v-0.3v-4.4v-1.9v-1.2v-2.2v-3.8l5.4-5.4l0.2-0.2v-0.3v-13l6.9-6.9l0.5-0.4l0,0l-0.5-0.5l-4.5-4.5L302.7,272.8z
		 M188.5,377.1h1.2c0.5,0.1,1,0.4,1.3,0.7c0.5,0.5,0.8,1.2,0.8,2h0v0v0h0v0c0,0.8-0.3,1.5-0.8,2c-0.5,0.5-1.2,0.8-2,0.8v0h0h0v0
		c-0.8,0-1.5-0.3-2-0.8c-0.5-0.5-0.8-1.2-0.8-2l0,0h0v0v0h0c0-0.8,0.3-1.5,0.8-2h0C187.4,377.4,187.9,377.1,188.5,377.1L188.5,377.1
		z"/>
	<path class="st0" d="M337.3,257.9l-7.7,7.7l-7.3,7.3h-10.9l-7.3-7.3l-3.5-3.5l-0.2-0.2h-0.3H268h-0.3l-0.2,0.2l-3.6,3.5l-12.7,12.3
		l-14,13.5h-22.5h-0.3l-0.2,0.2l-5.1,5.1h-14.4h-0.2l-0.2,0.2l-3.9,3.6l-0.2,0.2v0.3v4.8c-0.9,0.1-1.8,0.5-2.4,1.2
		c-0.3,0.3-0.6,0.7-0.8,1.1c-0.3,0.5-0.4,1.1-0.4,1.8h0v0v0h0c0,0.1,0,0.2,0,0.4c0,0.4,0.1,0.9,0.3,1.2c0.2,0.5,0.5,0.9,0.9,1.3
		c0.2,0.2,0.5,0.4,0.8,0.6c0.5,0.3,1,0.5,1.6,0.5v2.3l-9.4,9.4l-1.2,1.2l-0.2,0.2v0.3v5.1v4c-1.5,0.3-2.7,1.5-2.8,3.1
		c0,0.1,0,0.2,0,0.3c0,1.9,1.5,3.4,3.4,3.4c1.9,0,3.5-1.5,3.5-3.4c0-0.1,0-0.2,0-0.3c-0.1-1.6-1.3-2.8-2.8-3.1v-4v-4.8l1.9-1.9
		l8.7-8.7l0.2-0.2v-0.3v-2.6c0.5-0.1,0.9-0.3,1.3-0.5c0.3-0.2,0.6-0.4,0.8-0.6c0.4-0.4,0.7-0.8,0.9-1.3c0.2-0.4,0.3-0.8,0.3-1.2
		c0-0.1,0-0.2,0-0.4h0v0v0h0c0-0.6-0.2-1.2-0.4-1.8c-0.2-0.4-0.5-0.8-0.8-1.1v0c-0.6-0.6-1.3-1-2.1-1.1v-4.6l3.5-3.2h14.5h0.3
		l0.2-0.2l5.1-5.1h22.5h0.3l0.2-0.2l15.1-14.6l12.7-12.3l2.5-2.4H300l2.4,2.4l8.4,8.4l0.2,0.2h0.3h11.4h0.3l0.2-0.2l8.4-8.4l7.7-7.7
		l8.4-8.4h61l7,7l0.2,0.2h0.3h28.4h2.3v-1.3h-30.4l-7-7l-0.2-0.2h-0.3h-61.6H347l-0.2,0.2L337.3,257.9z M190.9,306.7L190.9,306.7
		c0.9,0,1.8,0.5,2.3,1.2c0.4,0.5,0.6,1.1,0.6,1.8c0,0.1,0,0.3,0,0.4c-0.1,0.5-0.2,0.9-0.5,1.2c-0.5,0.8-1.4,1.3-2.4,1.4l0,0
		c0,0-0.1,0-0.1,0c-1.1,0-2-0.5-2.5-1.4c-0.2-0.4-0.4-0.8-0.5-1.2c0-0.1,0-0.3,0-0.4c0-0.7,0.2-1.3,0.6-1.8c0.5-0.7,1.4-1.2,2.4-1.2
		C190.8,306.7,190.8,306.7,190.9,306.7z"/>
	<path class="st0" d="M326.3,234.5L326.3,234.5L326.3,234.5L326.3,234.5c0-1.1-0.5-2.2-1.2-2.9v0c-0.3-0.3-0.6-0.5-1-0.7
		c-0.6-0.3-1.2-0.5-1.9-0.5v0h0h0v0c-0.7,0-1.3,0.2-1.9,0.5c-0.4,0.2-0.7,0.4-1,0.7c-0.6,0.6-1,1.4-1.2,2.3H203h-0.3l-0.2,0.2
		l-0.5,0.5l-10.2,10.2l-2.7,2.7l-0.2,0.2h-46.3h-0.3l-0.2,0.2l-3.9,3.9l-6.2,6.2l-7.7,7.7l-11.6,11.6l-0.7,0.7l-1,1h-2.6
		c-0.1-0.4-0.2-0.7-0.4-1c-0.6-1.1-1.7-1.8-3-1.8c-1.3,0-2.5,0.7-3,1.8c-0.3,0.5-0.4,1-0.4,1.6c0,1.9,1.5,3.4,3.4,3.4
		c1.7,0,3.1-1.2,3.4-2.8h2.9h0.3l0.2-0.2l2.1-2.1l1.1-1.1l11.2-11.2l7.7-7.7l5.3-5.3l3.7-3.7h46.3h0.3l0.2-0.2l1.3-1.3l2.7-2.7
		l9.6-9.6h113.1h1.9c0.1,0.9,0.5,1.7,1.1,2.3v0c0.7,0.7,1.8,1.2,2.9,1.2v0h0h0v0c1.1,0,2.1-0.5,2.9-1.2
		C325.8,236.6,326.3,235.6,326.3,234.5L326.3,234.5z M324.2,236.5c-0.5,0.5-1.2,0.8-2,0.8v0h0h0v0c-0.8,0-1.5-0.3-2-0.8l0,0
		c-0.5-0.5-0.8-1.2-0.8-2h0v0v0h0c0-0.8,0.3-1.5,0.8-2c0.5-0.5,1.2-0.8,2-0.8v0h0h0v0c0.8,0,1.5,0.3,2,0.8v0c0.5,0.5,0.8,1.2,0.8,2
		h0v0v0h0C325,235.3,324.7,236,324.2,236.5z"/>
	<path class="st0" d="M263.1,338.9l0.2-0.2v-0.3v-6.3v-6.7v-11.1l1.2-1.2l1.9-1.9l1.2-1.2l2.2-2.2l1.9-1.9l0.2-0.2v-0.3v-20.7
		l3.6-3.6h14h1.5L290,280l-2.2-2.2l-1.2-1.2l-0.2-0.2h-0.3h-14.4h-0.3l-0.2,0.2l-1.2,1.2l-4.3,4.3l-0.2,0.2v0.3v20.2l-5.1,5.1
		l-2.2,2.2l-1.2,1.2l-1.9,1.9L243,325.5l-2.4,2.4l-0.2,0.2v0.3v3.9v6.8l-0.2,0.2l-7.8,7.8l-4.5,4.5l-8.7,8.7h-18.1h-0.3l-0.2,0.2
		l-1,1c-0.6-0.4-1.2-0.6-1.9-0.6c-1.9,0-3.5,1.5-3.5,3.5c0,1.9,1.5,3.5,3.5,3.5c1.9,0,3.5-1.5,3.5-3.5c0-0.7-0.2-1.4-0.6-1.9
		l0.8-0.8h18.1h0.3l0.2-0.2l9.8-9.8l4.5-4.5l7.3-7.3l0.2-0.2l0-0.3v0v-7.1v-3.7l3.1-3.1l12.3-12.3l1.9-1.9l1.2-1.2l2.2-2.2l4.4-4.4
		l0.2-0.2V303v-20.2l5-5l0.1-0.1h13.8l0.1,0.1l2,2h-12.7H275l-0.2,0.2l-4,4l-0.2,0.2v0.3v20.7l-2.6,2.6l-2.2,2.2l-1.2,1.2l-1.9,1.9
		l-0.5,0.5l-0.2,0.2v0.3v11.3v6.7v6l-1.1,1.1l-7.8,7.8l-4.5,4.5l-1.7,1.7l-0.2,0.2v0.3v14v0.6h0.6h7.9l6.1,6.1v5.4v3.6v0.3l0.2,0.2
		l2.2,2.2c-0.4,0.6-0.6,1.2-0.6,1.9c0,1.9,1.5,3.5,3.5,3.5c1.9,0,3.5-1.5,3.5-3.5c0-1.9-1.5-3.5-3.5-3.5c-0.7,0-1.4,0.2-1.9,0.6
		l-2-2v-3.3v-5.7v-0.3l-0.2-0.2l-6.4-6.4l-0.2-0.2h-0.3h-7.5V354l2.4-2.4l4.5-4.5l7.8-7.8L263.1,338.9z"/>
	<path class="st0" d="M268.3,193.9l-3.4,3.4h-78.1l-0.1-0.1l-8.3-8.3l-0.2-0.2H178h-14.2h-0.3l-0.2,0.2l-9.5,9.5H142
		c-0.1-0.9-0.6-1.7-1.1-2.3l0,0c-0.7-0.7-1.8-1.2-2.9-1.2v0h0h0v0c-1.1,0-2.1,0.5-2.9,1.2l0,0c-0.7,0.7-1.2,1.8-1.2,2.9h0v0v0h0
		c0,0.9,0.3,1.8,0.9,2.5c0.1,0.1,0.2,0.3,0.3,0.4c0.1,0.1,0.2,0.2,0.3,0.3c0.7,0.6,1.6,0.9,2.6,0.9v0h0h0v0c1,0,1.9-0.4,2.6-0.9
		c0.1-0.1,0.2-0.2,0.3-0.3c0.1-0.1,0.2-0.2,0.3-0.4c0.4-0.5,0.7-1.2,0.8-1.9h12.2h0.3l0.2-0.2l1-1l8.5-8.5h13.6l7.3,7.3l1.1,1.1
		l0.2,0.2h0.3h78.6h0.3l0.2-0.2l4.5-4.5l5.8-5.8h137.8h32.8v-1.3h-1.1H275.7h-0.3l-0.2,0.2L268.3,193.9z M140.8,199L140.8,199
		L140.8,199L140.8,199L140.8,199c0,0.8-0.3,1.5-0.8,2c-0.2,0.2-0.5,0.4-0.7,0.5c-0.4,0.2-0.8,0.3-1.3,0.3v0h0h0v0
		c-0.5,0-0.9-0.1-1.3-0.3c-0.3-0.1-0.5-0.3-0.7-0.5c-0.5-0.5-0.8-1.2-0.8-2h0v0v0h0c0-0.8,0.3-1.5,0.8-2c0.5-0.5,1.2-0.8,2-0.8v0h0
		h0v0c0.8,0,1.5,0.3,2,0.8v0C140.5,197.5,140.8,198.2,140.8,199z"/>
	<path class="st0" d="M263.8,183.8h-45.6l-5.3-5.3l-0.2-0.2h-0.3H148l-13.5-13.5l-4-4l-1.3-1.3l-0.2-0.2l-0.3,0H71.4h-0.3l-0.2,0.2
		l-1.3,1.3l-1.7,1.7c-0.6-0.3-1.3-0.5-2-0.5v0h0h0v0c-1.1,0-2.1,0.5-2.9,1.2l0,0c-0.5,0.5-0.8,1-1,1.7c-0.1,0.4-0.2,0.8-0.2,1.2h0v0
		v0h0c0,1.1,0.5,2.1,1.2,2.9c0.7,0.7,1.8,1.2,2.9,1.2v0h0h0v0c1.1,0,2.1-0.5,2.9-1.2c0.7-0.7,1.2-1.8,1.2-2.9h0v0v0h0
		c0-0.4-0.1-0.8-0.2-1.2c-0.2-0.6-0.5-1.1-0.9-1.6l2.4-2.4l0.2-0.2h56.9l0.2,0.2l4,4l14.5,14.5l0.2,0.2h0.3h64.3l5.4,5.4l0.2,0.2
		h0.3h46.2h0.3l0.2-0.2l10.5-10.5h154.4l-2.7,2.7l-151.1,0h-0.3l-0.2,0.2L265,187.6h-47.1l-6-6l-0.2-0.2h-0.3H144l-15.4-15.4
		l-0.2-0.2h-0.3h-18.6h-0.3l-0.2,0.2l-4.6,4.6L104,171l0.5,0.5l4.2,4.2l0.2,0.2h0.3h5.9l12,12l0.2,0.2h0.3h28.2l-4.5,4.5H131h-0.3
		l-0.2,0.2l-6.3,6.3h-7.5l-8.5-8.5l-0.2-0.2h-0.3H79.9h-0.3l-0.2,0.2l-5.8,5.8H47.8h-0.3l-0.2,0.2l-4,4H32.5h0
		c-0.1-0.9-0.5-1.7-1.1-2.3l0,0c-0.7-0.7-1.8-1.2-2.9-1.2v0h0h0v0c-1.1,0-2.1,0.5-2.9,1.2h0c-0.7,0.7-1.2,1.8-1.2,2.9h0v0v0h0
		c0,0.1,0,0.3,0,0.4c0,0.2,0.1,0.4,0.1,0.6c0.2,0.7,0.6,1.3,1,1.8c0.7,0.7,1.8,1.2,2.9,1.2v0h0h0v0c1.1,0,2.1-0.5,2.9-1.2
		c0.5-0.5,0.9-1.1,1.1-1.8c0-0.1,0.1-0.3,0.1-0.4h11.1h0.3l0.2-0.2l0,0l4-4h25.9h0.3l0.2-0.2l5.8-5.8h27.3l8.5,8.5l0.2,0.2h0.3h8
		h0.3l0.2-0.2l6.3-6.3h20.1h0.3l0.2-0.2l5.8-5.8l1.1-1.1h-1.5h-29.5l-12-12l-0.2-0.2h-0.3h-5.9l-3.6-3.6l4-4h18.1l15.4,15.4l0.2,0.2
		h0.3h67.3l6,6l0.2,0.2h0.3h47.7h0.3l0.2-0.2l10.2-10.2l151.1,0l0.3,0l0.2-0.2l4-4l1.1-1.1H431H274.8h-0.3l-0.2,0.2L263.8,183.8z
		 M66,163.3c0.4,0,0.7,0.1,1,0.2l0,0l0.1,0.1l0.3,0.4l0.4,0.5l0.2-0.2c0.2,0.2,0.3,0.4,0.4,0.7c0.2,0.4,0.3,0.8,0.3,1.2h0v0v0h0
		c0,0.8-0.3,1.5-0.8,2c-0.5,0.5-1.2,0.8-2,0.8v0h0h0v0c-0.8,0-1.5-0.3-2-0.8c-0.5-0.5-0.8-1.2-0.8-2h0v0v0h0c0-0.4,0.1-0.8,0.3-1.2
		c0.1-0.3,0.3-0.5,0.5-0.8h0C64.5,163.6,65.2,163.3,66,163.3L66,163.3L66,163.3L66,163.3L66,163.3z M31.3,201.1L31.3,201.1
		L31.3,201.1c0,0.2,0,0.3,0,0.4c0,0.2-0.1,0.4-0.2,0.6c-0.1,0.3-0.4,0.6-0.6,0.9c-0.5,0.5-1.2,0.8-2,0.8v0h0h0v0
		c-0.8,0-1.5-0.3-2-0.8c-0.3-0.3-0.5-0.6-0.6-0.9c-0.1-0.2-0.1-0.4-0.2-0.6c0-0.1,0-0.3,0-0.4h0v0v0h0c0-0.8,0.3-1.5,0.8-2l0,0
		c0.5-0.5,1.2-0.8,2-0.8v0h0h0v0c0.8,0,1.5,0.3,2,0.8v0C31,199.6,31.3,200.3,31.3,201.1L31.3,201.1L31.3,201.1z"/>
	<path class="st0" d="M265.5,243.9l-0.8,0.8l-2.7,2.7l-10.5,10.5l-7.7,7.7l-6.4,6.4h-58.4l-6.4-6.4l-3.1-3.1l-0.2-0.2h-0.3h-20.8
		h-0.3l-0.2,0.2l-3.1,3.1l-1.2,1.2l-0.2,0.2v0.3v10.6v16.5l-11.5,11.5l-1.7,1.7h-3.3c-0.3-1.6-1.7-2.8-3.4-2.8
		c-1.8,0-3.3,1.4-3.4,3.2c0,0.1,0,0.2,0,0.3c0,0.7,0.2,1.4,0.6,1.9c0.4,0.5,0.8,1,1.4,1.2c0.4,0.2,0.9,0.3,1.4,0.3
		c0.5,0,1-0.1,1.5-0.3c0.6-0.3,1.1-0.7,1.4-1.2c0.2-0.4,0.4-0.8,0.5-1.3h3.5h0.3l0.2-0.2l0.7-0.7l2.5-2.5l10.3-10.3l0.2-0.2v-0.3
		v-16.7v-10.4l1.9-1.9l2-2h20.3l2,2l7.5,7.5l0.2,0.2h0.3h58.9h0.3l0.2-0.2l7.5-7.5l7.7-7.7l10.5-10.5l2.4-2.4H446h0.7v-1.3H266
		l-0.3,0L265.5,243.9z"/>
	<path class="st0" d="M266.1,247.5l-10.4,10.4l-7.7,7.7l-9.4,9.4h-61l-9.3-9.3l-0.2-0.2l0,0h-0.3h-17h-0.3l0,0l-0.2,0.2l-4,4
		l-0.2,0.2v0.3v7.7v19.8l-10.2,10.2l-2.2,2.2l-0.1,0.1c0,0-0.1,0-0.1-0.1c-0.5-0.2-1.1-0.4-1.7-0.4v0h0h0v0c-0.6,0-1.2,0.1-1.7,0.4
		c-0.5,0.2-0.9,0.5-1.2,0.8c-0.1,0.1-0.2,0.3-0.3,0.4c-0.4,0.5-0.7,1.2-0.8,1.9c0,0.2,0,0.4,0,0.6h0v0v0h0c0,1.1,0.5,2.1,1.2,2.9
		c0.7,0.7,1.8,1.2,2.9,1.2v0h0h0v0c1.1,0,2.1-0.5,2.9-1.2c0.7-0.7,1.2-1.8,1.2-2.9h0v0v0h0c0-0.2,0-0.4,0-0.6
		c-0.1-0.7-0.4-1.4-0.8-1.9c-0.1-0.1-0.2-0.3-0.3-0.4l0,0l0.8-0.8l0.1-0.1l2.1-2.1l9.5-9.5l0.2-0.2l0-0.3v-20.1v-7.5l3.6-3.6h16.5
		l9.3,9.3l0.2,0.2h0.3h61.5h0.3l0.2-0.2l10.5-10.5l7.7-7.7l9.3-9.3H314l6.6,6.6c-0.6,0.7-1,1.7-1,2.7h0v0v0v0h0
		c0,1.1,0.5,2.1,1.2,2.9c0.7,0.7,1.8,1.2,2.9,1.2v0h0h0v0c1.1,0,2.1-0.5,2.9-1.2c0.7-0.7,1.2-1.8,1.2-2.9h0v0v0v0h0
		c0-1.1-0.5-2.1-1.2-2.9c-0.7-0.7-1.8-1.2-2.9-1.2v0h0h0v0c-0.8,0-1.5,0.2-2.1,0.6l-6.9-6.9l-0.1-0.1l-0.1-0.1h-0.3h-47.7h-0.3
		L266.1,247.5L266.1,247.5z M132,311c0.5,0,0.9,0.1,1.3,0.3c0.1,0.1,0.2,0.1,0.3,0.2l0.3,0.3l0,0l0,0c0.4,0.4,0.6,0.9,0.8,1.4
		c0,0.2,0.1,0.4,0.1,0.6h0v0v0h0c0,0.8-0.3,1.5-0.8,2c-0.5,0.5-1.2,0.8-2,0.8v0h0h0v0c-0.8,0-1.5-0.3-2-0.8c-0.5-0.5-0.8-1.2-0.8-2
		h0v0v0h0c0-0.2,0-0.4,0.1-0.6c0.1-0.5,0.4-1,0.8-1.4c0.2-0.2,0.4-0.4,0.7-0.5C131.1,311.1,131.6,311,132,311L132,311L132,311
		L132,311L132,311z M323.6,255.1c0.8,0,1.5,0.3,2,0.8c0.5,0.5,0.8,1.2,0.8,2h0v0v0v0h0c0,0.8-0.3,1.5-0.8,2c-0.5,0.5-1.2,0.8-2,0.8
		v0h0h0v0c-0.8,0-1.5-0.3-2-0.8c-0.5-0.5-0.8-1.2-0.8-2h0v0v0v0h0c0-0.7,0.2-1.3,0.7-1.8l0.1,0.1l0.5-0.5l0.4-0.4
		C322.8,255.2,323.2,255.1,323.6,255.1L323.6,255.1L323.6,255.1L323.6,255.1L323.6,255.1z"/>
	<path class="st0" d="M433.2,204.7c-0.6,0.6-1,1.4-1.2,2.4h-54.7h-12.3c-0.3-1.6-1.7-2.8-3.4-2.8c-1.7,0-3.1,1.2-3.4,2.8h-70.5h-0.3
		l-0.2,0.2l-0.9,0.9l-2.9,2.9l-1.2,1.2l-0.3,0.3l-0.6,0.6l-3.9,3.9l-0.4,0.4h-48.9l-0.4-0.4l-3.9-3.9l-0.6-0.6l-0.3-0.3l-1.2-1.2
		l-2.9-2.9l-1-1l-0.2-0.2h-0.3h-31.2h-0.3l-0.2,0.2l-1,1L182,211l-1.2,1.2l-0.3,0.3l-0.6,0.6L179,214h-64.5l-0.9-0.9l-0.6-0.6
		l-0.3-0.3l-1.2-1.2l-2.9-2.9l-1.5-1.5c0.4-0.6,0.6-1.2,0.6-1.9c0-1-0.4-1.9-1.1-2.5c-0.3-0.3-0.6-0.5-1-0.6
		c-0.4-0.2-0.9-0.3-1.4-0.3c-0.5,0-1,0.1-1.4,0.3c-0.4,0.2-0.7,0.4-1,0.6c-0.7,0.6-1.1,1.5-1.1,2.5c0,1.9,1.5,3.4,3.4,3.4
		c0.7,0,1.4-0.2,1.9-0.6l0.6,0.6l2.9,2.9l1.2,1.2l0.3,0.3l0.6,0.6l2,2l0.2,0.2h0.3h65h0.3l0.2-0.2l2-2l0.6-0.6l0.3-0.3l1.2-1.2
		l2.8-2.8h30.7l2.8,2.8l1.2,1.2l0.3,0.3l0.6,0.6l3.9,3.9l1.5,1.5l0.2,0.2h0.3h49.4h0.3l0.2-0.2l1.5-1.5l3.9-3.9l0.6-0.6l0.3-0.3
		l1.2-1.2l2.7-2.7h70.3c0.2,1.3,1.2,2.3,2.4,2.7c0.3,0.1,0.6,0.1,1,0.1c0.3,0,0.7,0,1-0.1c1.2-0.4,2.2-1.4,2.4-2.7h67
		c0.2,0.8,0.6,1.6,1.1,2.2c0.2,0.2,0.4,0.4,0.6,0.5c0.6,0.4,1.4,0.7,2.2,0.7v0h0h0v0c0.8,0,1.6-0.3,2.2-0.7c0.2-0.2,0.4-0.3,0.6-0.5
		c0.6-0.6,1-1.4,1.2-2.3c0-0.2,0-0.4,0-0.5h0v0v0h0c0-1.1-0.5-2.1-1.2-2.9c-0.7-0.7-1.8-1.2-2.9-1.2v0h0h0v0
		C435,203.5,434,204,433.2,204.7z M361.7,210c-1.1,0-2.1-0.8-2.3-1.8c0-0.2-0.1-0.3-0.1-0.5c0-1.3,1-2.3,2.3-2.3
		c1.3,0,2.3,1.1,2.3,2.3c0,0.2,0,0.3-0.1,0.5C363.7,209.2,362.8,210,361.7,210z M436.1,204.8c0.8,0,1.5,0.3,2,0.8
		c0.5,0.5,0.8,1.2,0.8,2h0v0v0h0c0,0.2,0,0.4-0.1,0.5c-0.1,0.6-0.4,1.1-0.8,1.4c-0.5,0.5-1.2,0.8-2,0.8v0h0h0v0
		c-0.8,0-1.5-0.3-2-0.8c-0.4-0.4-0.6-0.9-0.7-1.4c-0.2-0.9,0.1-1.9,0.7-2.5C434.6,205.1,435.3,204.8,436.1,204.8L436.1,204.8
		L436.1,204.8L436.1,204.8L436.1,204.8z"/>
	<path class="st0" d="M194.3,160.8l-2.1-2.1l-0.2-0.2h-0.3h-14h-0.3l-0.2,0.2l-2.1,2.1l-3.6,3.6h-19l-3.6-3.6l-2.2-2.2
		c0,0,0.1-0.1,0.1-0.2c0.3-0.4,0.5-0.8,0.7-1.2c0.2-0.4,0.2-0.9,0.2-1.4h0v0v0h0c0-1-0.4-1.9-1-2.6c-0.1-0.1-0.1-0.2-0.2-0.2
		c-0.7-0.7-1.8-1.2-2.9-1.2v0h0h0v0c-1.1,0-2.1,0.5-2.9,1.2c-0.1,0.1-0.2,0.2-0.2,0.2c-0.6,0.7-1,1.6-1,2.6h0v0v0h0
		c0,0.5,0.1,0.9,0.2,1.4c0.2,0.4,0.4,0.8,0.7,1.2c0.1,0.1,0.2,0.2,0.3,0.3c0.7,0.7,1.8,1.2,2.9,1.2v0h0h0v0c0.8,0,1.5-0.2,2.1-0.6
		l1.4,1.4l4,4l0.7,0.7l0.2,0.2h0.3h19.5h0.3l0.2-0.2l0.7-0.7l4-4l1-1h13.4l1,1l4,4l7.9,7.9l0.2,0.2h0.3h9.6l5.4,5.4l0.2,0.2h0.3
		h42.5l-2,2h-42.2l-5.2-5.2l-0.2-0.2h-0.3h-8.2l-10.3-10.3l-2.7-2.7l-0.2-0.2h-0.3h-12.5h-0.3l-0.2,0.2l-2.7,2.7l-3.1,3.1h-25
		l-3.1-3.1l-4-4l-2.3-2.3l-1.2-1.2l-0.3-0.3l-3.7-3.7l-2.8-2.8l-2.3-2.3l-0.2-0.2h-0.3h-24.6h-0.3l-0.2,0.2l-2.3,2.3l-1.4,1.4
		c-0.7-0.5-1.5-0.8-2.4-0.8v0h0h0v0c-1.1,0-2.1,0.5-2.9,1.2c-0.3,0.3-0.6,0.6-0.8,1c-0.3,0.6-0.4,1.2-0.4,1.9h0v0v0h0
		c0,0.8,0.2,1.5,0.6,2.1c0.2,0.3,0.4,0.5,0.6,0.7v0c0.2,0.2,0.4,0.3,0.6,0.5c0.7,0.5,1.5,0.7,2.3,0.7v0h0h0v0c0.9,0,1.7-0.3,2.3-0.7
		c0.2-0.1,0.4-0.3,0.5-0.5c0.2-0.2,0.4-0.5,0.6-0.7c0.4-0.6,0.6-1.4,0.6-2.1h0v0v0h0c0-0.7-0.2-1.3-0.4-1.9
		c-0.1-0.2-0.2-0.4-0.3-0.5l2.3-2.3l1.2-1.2h24l1.2,1.2l2.8,2.8l3.5,3.5l0.5,0.5l1.2,1.2l2.3,2.3l4,4l4.2,4.2l0.2,0.2h0.3h25.5h0.3
		l0.2-0.2l4.2-4.2l1.6-1.6h12l1.6,1.6l11.4,11.4l0.2,0.2h0.3h8.2l5.2,5.2l0.2,0.2h0.3H261h0.3l0.2-0.2l3.3-3.3l1.1-1.1h-1.5h-43.8
		l-5.3-5.3l-0.2-0.2h-0.3h-9.6l-6.8-6.8L194.3,160.8z M143.8,158.8c-0.4,0-0.8-0.1-1.1-0.2c-0.3-0.1-0.6-0.3-0.8-0.6
		c-0.2-0.2-0.3-0.4-0.5-0.6c-0.2-0.4-0.4-0.9-0.4-1.4h0v0v0h0c0-0.8,0.3-1.5,0.8-2c0.3-0.3,0.6-0.5,1-0.7c0.3-0.1,0.6-0.2,0.9-0.2v0
		h0h0v0c0.3,0,0.7,0.1,1,0.2c0.4,0.1,0.7,0.4,1,0.7c0.5,0.5,0.8,1.2,0.8,2h0v0v0h0c0,0.5-0.1,1-0.3,1.4c-0.3,0.5-0.7,1-1.3,1.2
		C144.6,158.7,144.2,158.8,143.8,158.8L143.8,158.8L143.8,158.8L143.8,158.8L143.8,158.8z M96.3,152.3c0.7,0,1.3,0.2,1.8,0.6
		c0.1,0.1,0.1,0.1,0.2,0.2l0,0c0,0,0.1,0.1,0.1,0.1c0.4,0.5,0.7,1.1,0.7,1.9h0v0v0h0c0,0.8-0.3,1.5-0.8,2c-0.1,0.1-0.1,0.1-0.2,0.2
		c-0.5,0.4-1.1,0.7-1.8,0.7v0h0h0v0c-0.7,0-1.3-0.3-1.8-0.7c-0.1-0.1-0.1-0.1-0.2-0.2l0,0c-0.5-0.5-0.8-1.2-0.8-2h0v0v0h0
		c0-0.7,0.3-1.4,0.7-1.9c0,0,0.1-0.1,0.1-0.1C94.8,152.7,95.5,152.3,96.3,152.3L96.3,152.3L96.3,152.3L96.3,152.3L96.3,152.3z"/>
	<path class="st0" d="M143,354.5c0.7-0.7,1.2-1.8,1.2-2.9h0v0v0v0h0c0-0.9-0.3-1.7-0.7-2.3l2.1-2.1l0.3-0.3l0.2-0.2v-0.3v-7.1V335
		l2.8-2.8l3.2-3.2l0.2-0.2v-0.3v-3v-12.3v-1.9v-1.2v0v-1.5l-1.1,1.1l-0.5,0.5l-1.2,1.2l-1.9,1.9l-2.3,2.3l-0.2,0.2v0.3v6.4l-3.1,3.1
		l-3.2,3.2h-15.8h-0.3l-0.2,0.2l-3,3h-9.6h-0.8l-0.9-0.9l-5.4-5.4l-2.5-2.5l-0.2-0.2h-0.3h-5.2c-0.1-1-0.5-1.8-1.2-2.5
		c-0.7-0.7-1.8-1.2-2.9-1.2v0h0h0v0c-1.1,0-2.1,0.5-2.9,1.2l0,0c-0.7,0.7-1.2,1.8-1.2,2.9h0v0v0h0c0,0.8,0.3,1.6,0.7,2.3
		c0.1,0.2,0.3,0.4,0.5,0.6c0.7,0.7,1.8,1.2,2.9,1.2v0h0h0v0c1.1,0,2.1-0.5,2.9-1.2c0.2-0.2,0.4-0.4,0.5-0.6c0.3-0.4,0.5-0.9,0.6-1.4
		h1.3h3.8l1.4,1.4l3.2,3.2l3.5,3.5l0.7,0.7l0.2,0.2h0.3h3.3h7.6h0.3l0.2-0.2l0.7-0.7l2.3-2.3h15.8l0.3,0l0.2-0.2l4.3-4.3l2.4-2.4
		l0.2-0.2v-0.3v-6.4l3-3l1.6-1.6v1.6v12.3v2.8l-4,4l-2.1,2.1l-0.2,0.2v0.3v4.6v6.8l-1,1l-1.2,1.2c-0.7-0.5-1.5-0.8-2.5-0.8v0h0h0v0
		c-1.1,0-2.1,0.5-2.9,1.2l0,0c-0.7,0.7-1.2,1.8-1.2,2.9h0v0v0v0h0c0,1.1,0.5,2.1,1.2,2.9c0.7,0.7,1.8,1.2,2.9,1.2v0h0h0v0
		C141.2,355.6,142.2,355.2,143,354.5z M92.5,325.2c-0.1,0.1-0.2,0.2-0.3,0.3c-0.5,0.3-1,0.5-1.7,0.5v0h0h0v0c-0.6,0-1.2-0.2-1.7-0.5
		c-0.1-0.1-0.2-0.2-0.3-0.3c-0.5-0.5-0.8-1.2-0.8-2h0v0v0h0c0-0.8,0.3-1.5,0.8-2c0.5-0.5,1.2-0.8,2-0.8v0h0h0v0c0.8,0,1.5,0.3,2,0.8
		c0.4,0.4,0.7,1,0.8,1.6v0.6v0.2C93.2,324.2,92.9,324.7,92.5,325.2z M140.1,354.4c-0.8,0-1.5-0.3-2-0.8c-0.5-0.5-0.8-1.2-0.8-2h0v0
		v0v0h0c0-0.8,0.3-1.5,0.8-2h0c0.5-0.5,1.2-0.8,2-0.8v0h0h0v0c0.8,0,1.5,0.3,2,0.8c0.5,0.5,0.8,1.2,0.8,2h0v0v0v0h0
		c0,0.8-0.3,1.5-0.8,2C141.6,354.1,140.9,354.4,140.1,354.4L140.1,354.4L140.1,354.4L140.1,354.4L140.1,354.4z"/>
	<path class="st0" d="M421.8,216.6L421.8,216.6c-0.1,0.1-0.3,0.3-0.4,0.4c-0.5,0.7-0.8,1.5-0.8,2.4h0v0v0h0c0,0.3,0,0.6,0.1,0.8
		c0.2,0.8,0.6,1.5,1.1,2c0.7,0.7,1.8,1.2,2.9,1.2v0h0h0v0c1.1,0,2.1-0.5,2.9-1.2c0.6-0.6,0.9-1.3,1.1-2.1c0-0.1,0-0.1,0-0.2h3.9
		l0.2,0.2l3.6,3.6l2.7,2.7h-38.4l-2.7-2.7l-2.8-2.8l-0.7-0.7l-0.7-0.7l-0.2-0.2h-0.3h-10.5h-0.3l-0.2,0.2l-0.7,0.7l-1.5,1.5
		l-2.1,2.1l-2.7,2.7H335l-2.4-2.4l-0.3-0.3l-3.6-3.6l-0.2-0.2l-0.2-0.2h-0.3h-51.3h-0.3l-0.2,0.2l-0.2,0.2l-3.6,3.6l-1.5,1.5
		c-0.6-0.6-1.4-0.9-2.3-0.9c-1.9,0-3.5,1.5-3.5,3.5c0,1.3,0.7,2.4,1.7,3c0.5,0.3,1.1,0.5,1.8,0.5c0.6,0,1.2-0.2,1.8-0.5
		c1-0.6,1.7-1.7,1.7-3c0-0.5-0.1-1-0.3-1.5l2.5-2.5l2.7-2.7h50.8l2.7,2.7l0.4,0.4l3.4,3.4l0.2,0.2h0.3h40.8h0.3l0.2-0.2l3.8-3.8
		l2.2-2.2l1.1-1.1h10l0.5,0.5l2.8,2.8l3.8,3.8l0.2,0.2h0.3h40.2h1.5l-1.1-1.1l-2.9-2.9l-3.6-3.6l-1.3-1.3l-0.2-0.2h-0.3h-4.2
		c-0.1-0.7-0.4-1.3-0.8-1.8c-0.1-0.2-0.2-0.3-0.4-0.4c-0.7-0.7-1.8-1.2-2.9-1.2v0h0h0v0C423.5,215.4,422.5,215.9,421.8,216.6z
		 M424.7,216.7c0.5,0,1,0.1,1.4,0.4c0.2,0.1,0.4,0.3,0.6,0.5c0.4,0.4,0.6,0.8,0.8,1.4c0.1,0.1,0.1,1.4,0,1.3c0,0.1,0,0.1-0.1,0.2
		c-0.1,0.4-0.4,0.8-0.7,1.1c-0.5,0.5-1.2,0.8-2,0.8v0h0h0v0c-0.8,0-1.5-0.3-2-0.8c-0.3-0.3-0.6-0.7-0.7-1.1
		c-0.1-0.3-0.1-0.5-0.1-0.8h0v0v0h0c0-0.8,0.3-1.5,0.8-2h0c0.2-0.2,0.4-0.3,0.6-0.5C423.7,216.8,424.2,216.7,424.7,216.7
		L424.7,216.7L424.7,216.7L424.7,216.7L424.7,216.7z"/>
	<path class="st0" d="M375.4,164.9c-0.3,0.4-0.5,0.9-0.6,1.4H232.1l-1.4-1.4l-4-4l-0.5-0.5l-0.2-0.2h-0.3h-6.7
		c-0.1-0.6-0.4-1.2-0.8-1.7c-0.6-0.7-1.5-1.2-2.6-1.2c-1,0-1.9,0.4-2.6,1.2c-0.4,0.5-0.7,1-0.8,1.7h-0.1h-10.5l-1.6-1.7l-1.2-1.2
		l-0.7-0.7l-3.2-3.3l-0.7-0.7l-0.2-0.2h-0.3h-14.5l-1.9-1.9l-4.8-4.8l-0.2-0.2l-0.2-0.2h-0.3h-35.3l-6.3-6.3l-0.5-0.5l-0.2-0.2h-0.3
		h-26.1H103l-0.2,0.2l-0.5,0.5l-6.7,6.7l-0.5,0.5H83.3H83l-0.2,0.2l-4.1,4.1l-0.5,0.5c-0.3-0.2-0.7-0.4-1.1-0.5
		c-0.4-0.1-0.8-0.2-1.2-0.2v0h0h0v0c-0.4,0-0.8,0.1-1.1,0.2c-0.7,0.2-1.3,0.6-1.7,1c-0.5,0.5-0.8,1.1-1,1.8
		c-0.1,0.4-0.2,0.7-0.2,1.1h0v0v0h0c0,1.1,0.5,2.1,1.2,2.9h0c0.7,0.7,1.8,1.2,2.9,1.2v0h0h0v0c1.1,0,2.1-0.5,2.9-1.2l0,0
		c0.7-0.7,1.2-1.8,1.2-2.9h0v0v0h0c0-0.4-0.1-0.8-0.2-1.1c-0.1-0.5-0.4-1-0.7-1.4l0.2-0.2l1.2-1.2l3-3h11.9h0.3l0.2-0.2l1.6-1.6
		l6.1-6.1h25.5l6.1,6.1l0.7,0.7l0.2,0.2h0.3h35.3l4,4l2.8,2.8l0.2,0.2l0.2,0.2h0.3h14.5l2.8,2.8l0.8,0.8l1.2,1.2l2.3,2.3l0.4,0.4
		l0.2,0.2h0.3h10.8h0.1c0.3,1.6,1.7,2.8,3.4,2.8c1.7,0,3.1-1.2,3.4-2.8h6.4l3.4,3.4l2.5,2.5l0.2,0.2h0.3h142.9
		c0.3,1.6,1.7,2.8,3.4,2.8c1.7,0,3.1-1.2,3.4-2.8h65.1v-1.3h-12.3h-52.7c-0.1-0.5-0.3-1-0.6-1.4c-0.6-0.8-1.6-1.4-2.8-1.4
		C377,163.5,376,164,375.4,164.9z M75.9,151.6c0.5,0,1,0.1,1.4,0.4l0.8,0.8l0,0c0.1,0.2,0.2,0.3,0.3,0.5c0.2,0.3,0.2,0.7,0.2,1.1h0
		v0v0h0c0,0.8-0.3,1.5-0.8,2c-0.5,0.5-1.2,0.8-2,0.8v0h0h0v0c-0.8,0-1.5-0.3-2-0.8c-0.5-0.5-0.8-1.2-0.8-2h0v0v0h0
		c0-0.4,0.1-0.8,0.2-1.1c0.1-0.3,0.3-0.6,0.6-0.9C74.4,151.9,75.1,151.6,75.9,151.6L75.9,151.6L75.9,151.6L75.9,151.6L75.9,151.6z
		 M215.6,163.3c-1.4,0-2.5-1.1-2.5-2.5v0c0-1.1,0.7-2,1.6-2.3c0.3-0.1,0.6-0.2,0.9-0.2c0.3,0,0.6,0.1,0.9,0.2
		c0.9,0.4,1.6,1.3,1.6,2.3v0C218.1,162.2,217,163.3,215.6,163.3z M379.2,164.9c0.7,0.4,1.2,1.2,1.2,2.1c0,1.3-1,2.3-2.3,2.3
		c-1.3,0-2.3-1.1-2.3-2.3c0-0.9,0.5-1.7,1.2-2.1c0.3-0.2,0.7-0.3,1.1-0.3C378.5,164.6,378.9,164.7,379.2,164.9z"/>
	<path class="st0" d="M256.6,157.3l-4-4l-1.5-1.5l-0.2-0.2h-0.3h-18.8l-1.1-1.1l-2.9-2.9l-0.2-0.2h-0.3h-45.2l-1.8-1.8l-5.9-5.9
		l-0.2-0.2h-0.3h-36.4L137,139l-2.7-2.7l-0.2-0.2h-0.3H95.5h-0.3l-0.2,0.2l-2.7,2.7l-4.9,4.9h-9.6h-0.3l-0.2,0.2l-1.6,1.6l-4.8,4.8
		l-2.8,2.8l-4,4l-1.2,1.2l-2.3,2.3l-3.2,3.2c-0.6-0.4-1.2-0.6-1.9-0.6c-1.1,0-2.1,0.6-2.8,1.4c-0.4,0.6-0.7,1.3-0.7,2
		c0,1.9,1.5,3.5,3.4,3.5c1.9,0,3.5-1.5,3.5-3.5c0-0.7-0.2-1.4-0.6-1.9l0.1-0.1l4-4l2.3-2.3l1.2-1.2l4-4l2.8-2.8l4.8-4.8l0.5-0.5h9.6
		H88l0.2-0.2l6-6l1.6-1.6h37.9l1.6,1.6l1.7,1.7l0.2,0.2h0.3h36.4l4.8,4.8l2.9,2.9l0.2,0.2h0.3h45.2l1.8,1.8l2.2,2.2l0.2,0.2h0.3
		h18.8l0.4,0.4l4,4l1.2,1.2l2.3,2.3l1,1l0.2,0.2h0.3h104h82.9v-1.3h-2.5H260.1l-2.2-2.2L256.6,157.3z"/>
	<path class="st0" d="M99.8,350c0.7-0.7,1.2-1.8,1.2-2.9h0v0v0v0h0c0-0.9-0.3-1.8-0.8-2.5l0.1-0.1l5.3-5.3l2.8-2.8h8.2l2.8,2.8
		l1.5,1.5c-0.4,0.6-0.6,1.2-0.6,1.9c0,1.9,1.5,3.4,3.5,3.4c1.9,0,3.5-1.5,3.5-3.4c0-1.9-1.5-3.5-3.5-3.5c-0.7,0-1.4,0.2-1.9,0.6
		l-0.6-0.6l-3.9-3.9l-0.2-0.2h-0.3H108h-0.3l-0.2,0.2l-3.9,3.9l-4.4,4.4c-0.7-0.5-1.5-0.7-2.3-0.7v0h0h0v0c-1.1,0-2.1,0.5-2.9,1.2
		l0,0c-0.7,0.7-1.2,1.8-1.2,2.9h0v0v0v0h0c0,1.1,0.5,2.1,1.2,2.9c0.7,0.7,1.8,1.2,2.9,1.2v0h0h0v0C98,351.2,99,350.7,99.8,350z
		 M96.9,349.9c-0.8,0-1.5-0.3-2-0.8c-0.5-0.5-0.8-1.2-0.8-2h0v0v0v0h0c0-0.8,0.3-1.5,0.8-2c0.5-0.5,1.2-0.8,2-0.8v0h0h0v0
		c0.5,0,1,0.1,1.4,0.4l-0.3,0.3l0.5,0.5l0.5,0.5l0.3-0.3c0.3,0.4,0.5,1,0.5,1.6h0v0v0v0h0c0,0.8-0.3,1.5-0.8,2
		C98.4,349.6,97.7,349.9,96.9,349.9L96.9,349.9L96.9,349.9L96.9,349.9L96.9,349.9z"/>
	<path class="st0" d="M130.4,364.1c0-0.6-0.2-1.3-0.5-1.8l2.3-2.3h13.2h0.3l0.2-0.2l7.4-7.4l0.2-0.2v-0.3v-0.4v-4.3l0.2-0.2l7.8-7.8
		l3.4-3.4l0.2-0.2v-0.3v-3.2v-5.4v-0.3l-0.2-0.2l-0.9-0.9l-3.8-3.8v-7.4c0.7-0.2,1.4-0.6,1.9-1.1l0,0c0.5-0.5,0.9-1.2,1.1-1.9
		c0.1-0.3,0.1-0.6,0.1-1h0v0v0h0c0-0.1,0-0.2,0-0.2c0-0.8-0.3-1.6-0.8-2.2c-0.1-0.2-0.3-0.3-0.4-0.5c-0.7-0.7-1.8-1.2-2.9-1.2v0h0h0
		v0c-1.1,0-2.1,0.5-2.9,1.2l0,0c-0.1,0.1-0.3,0.3-0.4,0.5c-0.5,0.6-0.7,1.4-0.8,2.2c0,0.1,0,0.2,0,0.2h0v0v0h0c0,0.3,0,0.7,0.1,1
		c0.2,0.7,0.6,1.4,1.1,1.9v0c0.7,0.7,1.6,1.1,2.6,1.2v7.5l0,0.3l0.2,0.2l3.1,3.1l1.7,1.7v5.1v3l-4.1,4.1l-7.3,7.3l-0.2,0.2v0.3v0
		v4.5v0.1l-7,7H132h-0.3l-0.2,0.2l-2.4,2.4c-0.6-0.5-1.3-0.7-2.1-0.7c-1.9,0-3.5,1.5-3.5,3.5c0,1.9,1.5,3.5,3.5,3.5
		C128.9,367.5,130.4,366,130.4,364.1z M159.2,313.1c-0.8,0-1.5-0.3-2-0.8l0,0c-0.3-0.3-0.5-0.6-0.6-1c-0.1-0.3-0.2-0.6-0.2-1h0v0v0
		h0c0-0.1,0-0.2,0-0.2c0.1-0.7,0.4-1.3,0.8-1.7h0c0.2-0.2,0.3-0.3,0.5-0.4c0.4-0.3,0.9-0.4,1.4-0.4v0h0h0v0c0.5,0,1,0.1,1.4,0.4
		c0.2,0.1,0.4,0.3,0.5,0.4c0.5,0.5,0.8,1.1,0.8,1.7c0,0.1,0,0.2,0,0.2h0v0v0h0c0,0.3-0.1,0.7-0.2,1c-0.1,0.4-0.4,0.7-0.6,1
		C160.7,312.8,160,313.1,159.2,313.1L159.2,313.1L159.2,313.1L159.2,313.1L159.2,313.1z"/>
	<path class="st0" d="M179.1,381.8c0-0.7-0.2-1.4-0.6-1.9l0,0l4.5-4.5l0.2-0.2v-0.3v-7.7v-5.4l6.3-6.3l0.6-0.6c0.7,0.6,1.7,1,2.7,1
		v0h0h0v0c1.1,0,2.1-0.5,2.9-1.2c0.7-0.7,1.2-1.8,1.2-2.9h0v0v0h0c0-0.1,0-0.2,0-0.3c-0.1-1-0.5-1.9-1.2-2.5
		c-0.7-0.7-1.8-1.2-2.9-1.2v0h0h0v0c-1.1,0-2.1,0.5-2.9,1.2l0,0c-0.7,0.7-1.1,1.5-1.2,2.5c0,0.1,0,0.2,0,0.4h0v0v0h0
		c0,0.7,0.2,1.4,0.6,2l-7.1,7.1l-0.2,0.2v0.3v8v5.1l-4.3,4.3c-0.6-0.4-1.2-0.6-1.9-0.6c-1.2,0-2.2,0.6-2.8,1.5
		c-0.4,0.6-0.6,1.2-0.6,1.9c0,1.9,1.5,3.5,3.4,3.5C177.6,385.2,179.1,383.7,179.1,381.8z M192.7,354.7c-0.7,0-1.3-0.3-1.8-0.7l0,0
		l-0.5-0.5l-0.1-0.1c-0.3-0.4-0.4-0.9-0.4-1.5h0v0v0h0c0-0.1,0-0.2,0-0.4c0.1-0.6,0.4-1.2,0.8-1.6h0c0.5-0.5,1.2-0.8,2-0.8v0h0h0v0
		c0.8,0,1.5,0.3,2,0.8c0.4,0.4,0.7,1,0.8,1.6c0,0.1,0,0.2,0,0.3h0v0v0h0c0,0.8-0.3,1.5-0.8,2C194.2,354.4,193.5,354.7,192.7,354.7
		L192.7,354.7L192.7,354.7L192.7,354.7L192.7,354.7z"/>
	<path class="st0" d="M253.9,149.3l-0.2-0.2h-0.3h-19.8l-3.4-3.4l-2-2l-0.2-0.2h-0.3h-45.4l-3.3-3.3l-1.2-1.2l-1.3-1.3l-0.2-0.2
		h-0.3h-36.3l-4.4-4.4l-0.2-0.2h-0.3H94.3H94l-0.2,0.2l-1.6,1.6L88,139l-2.5,2.5H76h-0.3l-0.2,0.2l-4,4l-4.8,4.8l-2.2,2.2H52.3
		l-2.2-2.2l-4.8-4.8l-6.7-6.7l-4-4l-0.2-0.2H34h-6.4l-1.7-2.1c0.5-0.6,0.9-1.4,0.9-2.3c0-0.6-0.1-1.1-0.4-1.6
		c-0.6-1.1-1.7-1.8-3.1-1.8c-1.3,0-2.5,0.7-3.1,1.8c-0.3,0.5-0.4,1-0.4,1.6c0,1.9,1.5,3.4,3.5,3.4c0.6,0,1.1-0.1,1.6-0.4l1.9,2.4
		L27,136h0.3h6.4l3,3l6.7,6.7l4.8,4.8l2.8,2.8l0.5,0.5l0.2,0.2H52h12.8H65l0.2-0.2l0.5-0.5l2.8-2.8l4.8-4.8l2.9-2.9h9.5H86l0.2-0.2
		l3.6-3.6l4.2-4.2l0.6-0.6h40.1l3.4,3.4l1,1l0.2,0.2h0.3h17.6h18.7l0.2,0.2l1.1,1.1l4.5,4.5l0.2,0.2h0.3h45.4l1,1l4.5,4.5l0.2,0.2
		h0.3h19.8l0.1,0.1l2.8,2.8l4,4l1.2,1.2l0,0l0.2,0.2h0.3h184.9v-1.3H262l-0.1-0.1l-4-4l-2.8-2.8L253.9,149.3z"/>
	<polygon class="st0" points="325.7,223.9 325.5,223.7 325.2,223.7 286.7,223.7 286.7,223.9 286.7,225 286.8,225 325,225 
		330.9,230.9 333.2,233.2 333.4,233.4 333.7,233.4 439.8,233.8 439.8,234.5 439.8,235.7 333.8,235.7 332.5,234.5 328.9,230.9 
		325.5,227.5 325.3,227.3 325.1,227.3 287.1,227.3 287.1,227.9 287.1,228.6 324.8,228.6 327.1,230.9 330.7,234.5 333.1,236.8 
		333.3,237 333.5,237 440.4,237 441,237 441,236.4 441,234.5 441,233.2 441,232.6 440.4,232.6 333.9,232.1 332.7,230.9 325.7,223.9 
			"/>
	<path class="st0" d="M139.2,371.4c0-1-0.5-2-1.2-2.6l0.2-0.4l1.2-2.1h0.9h9.9h0.3l0.2-0.2l5.5-5.5l0.2-0.2v-0.3v-8.4l0.2-0.2
		l4.5-4.5l4.7-4.7c0.7,0.6,1.7,1,2.7,1v0h0h0v0c1.1,0,2.1-0.5,2.9-1.2c0.7-0.7,1.2-1.8,1.2-2.9h0v0v0v0h0c0-1.1-0.5-2.1-1.2-2.9
		c-0.7-0.7-1.8-1.2-2.9-1.2v0h0h0v0c-1.1,0-2.1,0.5-2.9,1.2c-0.7,0.7-1.2,1.8-1.2,2.9h0v0v0v0h0c0,0.8,0.2,1.5,0.6,2.1l-5.7,5.7
		l-3.9,3.9l-0.2,0.2v0.3v0.1v0.3v8L150,365h-8.3h-2.6h-0.4l-0.2,0.3l-1.6,2.8c-0.4-0.1-0.7-0.2-1.1-0.2c-1.9,0-3.5,1.5-3.5,3.5
		c0,1.9,1.5,3.5,3.5,3.5C137.7,374.8,139.2,373.3,139.2,371.4z M168.5,342.1c-0.7,0-1.3-0.2-1.8-0.6l0,0l-0.4-0.4
		c-0.4-0.5-0.6-1.1-0.6-1.7h0v0v0v0h0c0-0.8,0.3-1.5,0.8-2c0.5-0.5,1.2-0.8,2-0.8v0h0h0v0c0.8,0,1.5,0.3,2,0.8
		c0.5,0.5,0.8,1.2,0.8,2h0v0v0v0h0c0,0.8-0.3,1.5-0.8,2C170,341.8,169.3,342.1,168.5,342.1L168.5,342.1L168.5,342.1L168.5,342.1
		L168.5,342.1z"/>
</g>
</svg>
