<?xml version="1.0" encoding="UTF-8"?>
<svg width="539px" height="326px" viewBox="0 0 539 326" version="1.1" xmlns="http://www.w3.org/2000/svg" xmlns:xlink="http://www.w3.org/1999/xlink">
    <!-- Generator: Sketch 50.2 (55047) - http://www.bohemiancoding.com/sketch -->
    <title>grass-leaves-silhouette</title>
    <desc>Created with Sketch.</desc>
    <defs></defs>
    <g id="Landing-Page" stroke="none" stroke-width="1" fill="none" fill-rule="evenodd">
        <g id="Artboard" transform="translate(0.000000, -5212.000000)" fill="#C2F2B8" fill-rule="nonzero">
            <g id="Group-3" transform="translate(-35.000000, 4859.000000)">
                <g id="grass-leaves-silhouette" transform="translate(0.000000, 352.000000)">
                    <path d="M541.496,47.872 C565.775,141.508 539.267,243.444 538.894,245.013 C538.961,244.516 539.554,237.191 539.554,237.191 C547.338,174.289 528.366,138.812 528.366,138.812 C541.171,193.232 517.542,224.262 503.685,237.191 C498.493,242.03 494.629,246.161 494.629,246.161 C494.228,246.161 493.874,239.63 493.577,237.191 C484.264,160.385 528.356,62.551 528.356,62.551 C500.146,87.624 483.058,169.22 475.542,214.116 C484.503,138.457 469.69,103.612 469.69,103.612 C475.542,166.887 460.844,218.821 454.676,237.191 C453.127,241.819 452.094,246.161 452.094,246.161 C451.377,246.161 450.737,239.821 450.124,237.191 C439.529,191.454 444.76,78.673 444.76,78.673 C434.241,104.98 427.91,159.036 424.526,198.272 C424.546,131.755 403.689,91.87 403.689,91.87 C425.693,176.938 396.355,232.668 396.355,232.668 C402.216,156.407 381.686,137.34 381.686,137.34 C396.852,168.905 362.619,231.215 362.619,231.215 C349.423,149.083 381.686,33.204 381.686,33.204 C362.15,60.734 350.684,129.642 344.679,179.74 C344.038,116.101 317.464,91.87 317.464,91.87 C344.172,156.407 317.157,235.604 317.157,235.604 C320.094,159.342 301.016,122.661 301.016,122.661 C303.415,156.331 276.277,216.546 266.409,237.182 C264.238,241.705 262.88,246.152 262.88,246.152 C262.316,246.152 261.838,239.716 261.398,237.182 C251.539,180.534 271.678,59.597 271.678,59.597 C248.594,77.555 234.48,205.272 231.295,237.192 C230.836,241.792 230.607,246.162 230.607,246.162 C230.473,246.162 230.32,239.621 230.177,237.192 C227.136,187.611 227.471,132.597 227.471,132.597 C217.765,143.25 210.115,246.152 210.067,246.152 L210.325,237.182 C216.636,109.054 193.935,66.941 193.935,66.941 C205.046,129.891 184.984,212.578 178.367,237.182 C177.124,241.82 176.34,246.152 176.34,246.152 C174.886,246.152 173.643,239.85 172.553,237.182 C157.148,199.411 176.34,112.401 176.34,112.401 C158.63,135.16 152.577,175.341 150.607,205.415 C152.233,51.296 139.668,0.931 139.668,0.931 C148.705,56.508 129.293,203.082 124.55,237.182 C124.273,239.191 124.301,238.98 124.55,237.182 L124.168,237.182 C127.677,185.296 110.331,91.87 110.331,91.87 C110.331,132.597 100.979,212.788 98.024,237.182 C97.469,241.772 97.135,246.152 97.135,246.152 C95.634,243.159 94.907,239.65 93.912,237.182 C71.564,170.789 97.135,59.597 97.135,59.597 C63.075,105.018 59.393,209 59.039,237.181 C59.01,239.352 59.001,239.945 59.039,237.181 C59.039,237.181 60.779,247.968 56.008,237.181 C39.647,201.828 59.938,91.869 59.938,91.869 C39.837,113.232 31.662,209.937 29.855,237.181 C29.559,241.723 29.186,246.151 29.186,246.151 C28.688,246.151 28.144,239.601 27.732,237.181 C11.772,143.593 59.068,39.935 59.068,39.935 C12.145,69.273 0,246.141 0,246.141 L0,326.821 L573.750171,326.821 L573.75,237.181 C573.836,73.012 541.496,47.872 541.496,47.872 Z" id="Shape"></path>
                </g>
            </g>
        </g>
    </g>
</svg>